<svg xmlns="http://www.w3.org/2000/svg" width="1130" height="480" fill="none"><path fill="#000" d="M425.272 395.477c3.802-1.033 8.266-1.55 13.392-1.55 6.902 0 11.862 1.612 14.88 4.836 3.058 3.183 4.588 7.916 4.588 14.198 0 6.49-1.695 11.45-5.084 14.88-3.348 3.431-8.97 5.146-16.864 5.146h-10.912v-37.51Zm12.338 28.954c4.174 0 7.481-.413 9.92-1.24.868-2.48 1.302-5.58 1.302-9.3 0-2.934-.331-5.228-.992-6.882-.662-1.653-1.674-2.81-3.038-3.472-1.364-.702-3.162-1.054-5.394-1.054-1.53 0-3.183.124-4.96.372v21.576h3.162Zm46.181-29.884h9.3v38.44h-9.3v-38.44Zm34.294 37.882a446.257 446.257 0 0 1 5.704-19.778c2.15-6.778 4.258-12.813 6.324-18.104h13.206c2.067 5.291 4.154 11.326 6.262 18.104a396.695 396.695 0 0 1 5.766 19.778l-9.672.558c-.661-2.314-1.529-5.786-2.604-10.416h-12.71c-1.281 4.878-2.149 8.35-2.604 10.416l-9.672-.558Zm22.692-18.104a254.231 254.231 0 0 0-3.596-11.408h-.93c-1.24 3.431-2.459 7.234-3.658 11.408h8.184Zm67.231 18.972c-1.901 0-3.369-.31-4.402-.93-1.033-.661-1.901-1.653-2.604-2.976l-3.162-5.766c-.62-1.116-1.116-1.922-1.488-2.418-.372-.496-.93-.93-1.674-1.302-.744-.413-1.757-.64-3.038-.682h-2.232v13.764h-9.238v-37.2c3.72-1.24 8.081-1.86 13.082-1.86 5.125 0 9.073.972 11.842 2.914 2.811 1.902 4.216 4.795 4.216 8.68 0 2.604-.703 4.898-2.108 6.882-1.364 1.943-3.348 3.534-5.952 4.774v.558c1.24.331 2.294.827 3.162 1.488.909.62 1.819 1.509 2.728 2.666l3.72 5.084 2.48.558v5.208c-1.157.372-2.935.558-5.332.558Zm-10.168-21.576c1.529-1.116 2.294-2.81 2.294-5.084 0-1.694-.558-2.872-1.674-3.534-1.075-.702-2.811-1.054-5.208-1.054-1.405 0-2.687.124-3.844.372v9.3h8.432Zm40.123-17.174h9.3v38.44h-9.3v-38.44Zm53.08 39.06c-5.208 0-9.238-.578-12.09-1.736-2.811-1.198-4.216-3.327-4.216-6.386v-30.938h28.83v8.494h-19.53v6.882h16.368v8.122h-16.368v6.448c2.108.414 4.547.62 7.316.62 4.175 0 7.957-.392 11.346-1.178l1.178 8.308c-3.555.91-7.833 1.364-12.834 1.364Zm52.703-.124c-5.952 0-11.056-1.198-15.314-3.596l3.038-7.502c3.844 2.026 8.04 3.038 12.586 3.038 2.274 0 4.134-.144 5.58-.434.331-.702.496-1.55.496-2.542 0-1.074-.392-1.86-1.178-2.356-.785-.537-2.294-1.074-4.526-1.612-3.224-.785-5.828-1.632-7.812-2.542-1.942-.909-3.472-2.19-4.588-3.844-1.116-1.653-1.674-3.864-1.674-6.634 0-3.637 1.261-6.468 3.782-8.494 2.563-2.025 6.262-3.038 11.098-3.038 2.728 0 5.105.269 7.13.806a30.744 30.744 0 0 1 5.766 2.108v2.17c0 .992-.124 2.356-.372 4.092-.206 1.736-.434 2.976-.682 3.72h-7.688l-.558-4.526a23.815 23.815 0 0 0-3.906-.31c-1.736 0-3.058.228-3.968.682-.868.455-1.302 1.282-1.302 2.48 0 1.199.538 2.108 1.612 2.728 1.075.579 2.935 1.158 5.58 1.736 2.894.62 5.229 1.364 7.006 2.232 1.819.868 3.204 2.129 4.154 3.782.951 1.612 1.426 3.741 1.426 6.386 0 3.638-1.281 6.469-3.844 8.494-2.521 1.984-6.468 2.976-11.842 2.976ZM63.164 24.31l2.322.055C109.394 25.413 149.055 51 184.47 101.128c17.328 29.139 25.59 60.596 24.784 94.371l-.232 9.71c-1.332 55.87-33.64 102.763-96.923 140.68-12.12 6.329-25.357 9.323-39.712 8.98l-2.2-5.121.115-4.856c2.476-3.461 18.183-9.634 47.12-18.519 50.209-38.792 75.894-82.534 77.055-131.227 1.528-64.032-30.95-113.315-97.433-147.85l-9.922-.237c1.098 24.808 1.531 42.068 1.3 51.778-.853 35.746-2.854 84.207-6.003 145.384 1.25 18.476 1.585 39.816 1.008 64.022l-7.505 4.679-2.533-.061c-4.08-.097-6.466-3.392-7.156-9.886.433-18.154-.066-29.713-1.496-34.675 2.142-24.872 3.463-47.793 3.963-68.761l2.115-88.66c.644-27.02-.425-50.068-3.209-69.144l-2.533-.06c-14.073-.336-32.145 1.697-54.216 6.1-3.378-.081-5.028-1.74-4.95-4.977l.12-5.066c.235-9.851 19.28-14.325 57.137-13.422ZM302.104 26.207c11.486 2.527 17.178 5.902 17.078 10.124l-.061 2.533c-.057 2.392-2.578 4.796-7.564 7.212l-19.632-.468c-2.676 41.334-4.304 74.174-4.885 98.52l-4.169 174.786c21.391.511 31.929 7.38 31.613 20.609-3.274 1.47-5.755 2.186-7.444 2.145-24.691-3.827-37.81-5.759-39.358-5.796-5.911-.141-20.746 1.969-44.506 6.331l-2.418-4.916.176-7.388c.172-7.178 14.273-10.995 42.305-11.453.041-1.689.873-4.133 2.499-7.333 3.669-82.99 6.061-147.846 7.175-194.568l1.642-68.817-2.533-.06c-8.303-.199-21.45 1.952-39.44 6.451l-4.89-7.509.121-5.066c.194-8.163 24.958-13.275 74.291-15.337ZM381.366 19.227l22.165.529c29.834.711 52.353 21.807 67.557 63.286 1.642 2.01 2.35 7.73 2.125 17.159l-.06 2.533c-.705 29.553-26.803 55.192-78.294 76.916l-2.654 5.005-.177 7.389c-.221 9.288 16.589 27.712 50.43 55.273 40.873 39.698 72.32 64.315 94.34 73.853 1.615 3.136 2.401 5.619 2.357 7.448l-7.504 4.679-2.533-.06c-12.103-.289-57.208-36.708-135.317-109.258l-2.533-.06-2.596 64.57c-.547 22.939-4.058 34.331-10.531 34.176l-2.533-.06c-1.267-.03-3.671-2.552-7.212-7.565 3.878-26.802 6.694-62.219 8.448-106.25-20.915-14.58-31.305-24.685-31.17-30.314.151-6.333 10.873-10.16 32.167-11.483l2.649-4.795c.517-21.672-.2-59.496-2.151-113.473l7.504-4.679 2.322.055c6.564 2.27 9.695 9.736 9.393 22.402l-2.231 93.515c41.476-15.063 62.531-35.894 63.165-62.492-9.611-39.796-28.842-60.039-57.691-60.727-2.919-1.618-6.207-2.471-9.866-2.559-15.953 1.732-29.229 6.344-39.827 13.835l-9.711-.231c-3.377-.08-5.007-2.584-4.89-7.51.215-9.006 15.168-16.042 44.859-21.107ZM565.929 16.237c46.001 1.801 68.913 6.431 68.735 13.89-.063 2.674-3.449 5.902-10.158 9.685l-4.794-2.65-36.942-.88c-6.204 53.5-9.882 104.386-11.034 152.656l-3.227 135.311c-.058 2.393-2.579 4.797-7.565 7.212l-2.533-.06c-2.252-.054-4.656-2.575-7.212-7.565 4.784-129.712 9.517-224.857 14.201-285.434-1.548-.037-2.302-.9-2.262-2.589-20.342 2.754-40.927 3.882-61.755 3.385l-2.417-4.915.115-4.856c.128-5.347 20.774-9.009 61.937-10.984 3.237.077 4.874-.658 4.911-2.206ZM771.098 25.989c5.207.124 9.072 9.299 11.594 27.523l-10.338 203.153c1.518 7.218 1.931 25.322 1.239 54.312l-.584 24.487c-.057 2.392-2.578 4.796-7.564 7.212l-2.533-.061-7.273-5.031c6.637-124.74 10.396-205.616 11.279-242.628-1.088-19.317-1.53-33.267-1.325-41.852l-2.533-.06c-14.419 20.073-27.632 57.495-39.64 112.265-.266 11.118-4.543 19.253-12.833 24.406l-7.388-.176c-7.178-.171-15.315-39.792-24.412-118.862l-4.855-.116c-7.38 31.928-11.294 57.322-11.744 76.179l-.761 31.876c-1.462 43.616.467 92.593 5.789 146.932-2.691 6.554-5.232 9.802-7.625 9.745l-4.855-.116c-8.303-.198-10.939-54.965-7.909-164.302l.529-22.165c1.521-63.75 12.253-100.457 32.197-110.12 12.384.296 19.891 30.89 22.522 91.782 2.252.054 3.694 7.481 4.327 22.281 3.377.08 12.236-25.969 26.576-78.15 13.592-32.624 24.68-48.835 33.265-48.63l4.855.116ZM1118.79 19.498l2.54.06 7.27 5.032c-3.75 21.595-7.29 66.71-10.62 135.346.16 64.072-.09 110.111-.76 138.116 1.34 8.621 2 13.565 1.97 14.832-3.09 11.332-6.46 16.954-10.12 16.867l-5.07-.121c-10.97-.262-30.53-74.653-58.67-223.175l-4.86-.115c-9.32 42.583-13.32 92.334-12.01 149.253-.37 15.621 1.39 45.233 5.28 88.836l-4.92 2.417-4.85-.116c-8.31-.198-11.77-29.006-10.4-86.423 4.23-124.234 14.22-186.163 29.99-185.787l2.53.06c10.27.245 20.07 38.216 29.39 113.912l22.25 94.31 5.06.121 1.18-49.396c1.24-51.929 3.68-121.713 7.32-209.35l7.5-4.68Z"/><path fill="#000" fill-rule="evenodd" d="M886.168 10.61c3.596-.28 11.934.33 15.357 1.125 4.968 1.155 11.512 5.206 14.531 8.995 2.409 3.025 7.082 10.85 8.525 14.275.679 1.612 1.427 3.169 1.661 3.459.604.745 1.678.31 5.492-2.22 7.353-4.878 13.421-7.311 18.279-7.33 3.702-.013 5.392.634 7.31 2.802 3.73 4.217 4.493 11.054 1.827 16.364-1.213 2.415-8.855 10.522-10.903 11.566-.808.412-3.055 1.259-4.995 1.883-1.939.623-3.883 1.398-4.319 1.721-.754.559-.697.671 1.169 2.3 2.666 2.33 3.563 4.259 4.084 8.77.663 5.738.044 9.483-2.274 13.775l-1.853 3.428 1.53 4.33c1.933 5.474 2.406 11.607 1.234 16.003-1.38 5.175-5.686 10.252-10.701 12.619-2.997 1.414-4.777 1.879-10.622 2.772-2.387.365-4.489.812-4.669.994-.369.374 1.875 7.793 3.045 10.07 1.58 3.073 5.481 5.694 10.96 7.361 4.582 1.394 4.888 1.307 6.749-1.914.882-1.525 2.654-3.833 3.939-5.13 1.733-1.75 2.912-3.534 4.566-6.912 5.492-11.213 11.974-17.901 18.2-18.778 3.669-.517 5.302.92 9.224 8.117.615 1.129 7.968 2.721 8.682 2.873l.062.025c.353.64 4.994 2.861 5.984 2.858 9.177 2.235 5.644 29.278 5.629 29.392-.625-.267-.903-.952-2.114.036-.911.744-.933.888-.451 2.942.669 2.847.645 4.057-.123 6.338-1.518 4.51-6.353 7.832-11.428 7.851-3.551.013-3.539-.004-5.725 7.843-2.788 10.01-4.603 13.013-7.071 11.704-1.927-1.022-1.894-2.856.258-14.249.555-2.94.935-5.42.843-5.512-.092-.091-.967.119-1.944.468-.977.349-2.198.636-2.714.638-.516.002-2.125.816-3.576 1.808-4.385 3.001-8.262 4.109-11.427 3.27-1.374-.365-2.266-.291-4.954.408-1.804.468-5.147 1.231-7.43 1.695-2.64.536-4.339 1.097-4.668 1.541-.378.511-.508 3.314-.488 10.484.03 10.131-.401 15.069-1.958 22.464-1.426 6.778-1.545 6.409 3.88 11.967 5.457 5.591 7.796 8.824 9.937 13.738 1.521 3.49 1.554 3.527 3.234 3.752 2.402.322 3.13 1.169 4.905 5.707 2.06 5.264 5.217 11.713 5.854 11.954.279.106 2.012-.934 3.853-2.309 6.452-4.822 13.358-6.14 21.381-4.082 8.364 2.145 13.131 7.994 13.187 16.183.035 5.12-3.206 13.079-7.859 19.302-4.675 6.251-10.88 11.556-18.262 15.611-1.529.84-2.899 1.722-3.045 1.96-.146.238.504 1.137 1.444 1.998 1.864 1.707 2.078 2.658 1.24 5.491-.262.886-.378 1.708-.259 1.826.123.119 2.662.564 5.647.991 6.576.94 13.212 2.544 16.306 3.942 2.55 1.152 4.58 2.867 4.584 3.872.017 4.533-15.765 8.529-39.843 10.086-3.083.2-12.522.416-20.976.48-32.265.246-52.523-2.008-55.859-6.215-.982-1.239-1.114-2.249-.389-2.979.827-.833.099-1.043-4.752-1.373l-13.762-.936c-21.538-1.464-31.084-3.402-33.665-6.832l-.855-1.137.825-1.145c1.663-2.307 6.7-4.031 15.514-5.308 14.21-2.06 36.027-3.137 51.02-2.519 8.736.36 28.676 2.008 31.774 2.625l1.165.233-.685-1.594c-1.332-3.102-3.025-7.422-3.549-9.06-.707-2.207-5.172-11.032-8.65-17.094-2.23-3.885-2.84-5.326-2.994-7.067-.252-2.848.534-5.596 2.246-7.856.756-.998 1.374-1.961 1.374-2.139 0-.178-.872-1.238-1.936-2.356-2.618-2.752-4.43-5.655-6.096-9.767-.768-1.894-1.595-3.51-1.838-3.59-.244-.079-1.637.681-3.098 1.689-5.249 3.623-11.928 6.383-18.513 7.651-4.59.883-14.217.692-17.223-.344-1.914-.659-1.973-.653-3.437.349-1.552 1.061-4.706 1.931-6.989 1.927-4.677-.008-11.924-2.876-16.503-6.53-3.596-2.87-4.173-2.755-5.061 1.009-.947 4.015-.897 8.228.153 12.778 1.609 6.979.45 12.932-3.329 17.098-2.657 2.929-5.136 4.112-9.131 4.359-3.999.246-6.404-.492-10.539-3.235-11.592-7.691-17.979-26.992-14.09-42.577 1.36-5.448 2.765-7.755 9.068-14.889 3.186-3.606 5.792-6.726 5.791-6.933-.001-.206-.925-.372-2.053-.368-1.129.004-2.166-.174-2.305-.397-.372-.597.406-3.343 2.538-8.951 1.788-4.7 2.07-5.164 4.833-7.944 3.298-3.319 7.299-5.768 11.403-6.979 3.272-.965 10.298-1.161 13.74-.382 3.817.864 11.896 4.966 16.44 8.348 3.344 2.489 4.945 3.369 8.118 4.463 2.173.749 5.894 2.179 8.268 3.177 2.375.999 4.576 1.715 4.891 1.593.316-.122.783-.686 1.038-1.253.386-.854.127-2.365-1.514-8.834-3.935-15.519-11.534-41.441-14.633-49.92-2.448-6.696-4.021-8.478-12.373-14.009-5.819-3.853-9.78-5.935-13.974-7.346-5.277-1.775-6.059-1.186-6.038 4.549.018 4.632.623 6.112 3.214 7.87 1.096.744 2.955 2.238 4.132 3.321 3.897 3.587 5.973 10.018 5.23 16.201-.365 3.039-1.065 4.579-2.858 6.297-1.175 1.125-1.278 1.446-1.271 3.951.005 1.499-.195 3.47-.444 4.38-1.1 4.018-5.792 6.359-10.516 5.244-2.233-.527-2.308-.515-3.997.665-2.344 1.638-6.121 1.898-9.793.675-1.629-.542-3.04-.76-3.849-.595-3.756.765-8.158-2.414-10.86-7.844-2.372-4.766-3.05-8.357-2.838-15.011.252-7.883 1.912-13.048 5.731-17.843l1.967-2.47-.029-7.563c-.05-13.437 2.009-20.482 7.901-27.038 2.575-2.865 5.216-4.533 9.705-6.13 6.678-2.376 13.787-1.718 22.907 2.122 2.128.895 4.046 1.519 4.263 1.385.509-.317.496-3.166-.02-4.508-.657-1.711-2.145-2.341-6.533-2.768-5.314-.517-8.08-1.241-13.106-3.43-11.407-4.97-17.12-11.085-18.906-20.238-2.335-11.959 2.243-24.32 11.731-31.677 5.494-4.26 12.155-6.526 21.669-7.369 3.433-.304 5.908-.729 6.578-1.128.592-.352 2.169-2.506 3.504-4.786 1.336-2.28 3.384-5.312 4.55-6.738 6.399-7.816 18.602-13.893 29.631-14.755Zm75.874 304.685c-1.451-.455-13.76.319-15.384.967-1.885.752-8.843 8.22-8.494 9.117.131.339.724.799 1.316 1.022 2.732 1.027 8.333.177 14.122-2.142 6.006-2.407 9.307-5.017 9.298-7.355-.003-.988-.23-1.412-.858-1.609Zm25.835-45.818c-2.14-.528-4.74.101-7.187 1.739-3.763 2.519-10.486 9.417-16.672 17.106-3.147 3.912-7.237 8.788-9.089 10.835-4.533 5.012-4.768 5.384-4.186 6.649.435.945.676 1.016 3.282.961 3.35-.069 3.615-.121 7.484-1.466 5.855-2.035 12.37-6.664 18.389-13.065 6.406-6.812 8.676-11.451 8.931-18.245l.159-4.239-1.111-.275Zm-40.08 7.725c-.004-.874-1.749.003-3.41 1.713-2.251 2.317-4.021 5.664-4.146 7.839-.122 2.129.56 2.152 1.731.059.543-.971 2.076-3.469 3.407-5.551 1.33-2.083 2.418-3.909 2.418-4.06Zm-13.424-38.478c-1.838-1.917-2.534-1.984-6.486-.622-3.867 1.332-7.542 3.248-11.781 6.139-8.035 5.481-8.317 7.058-2.739 15.369 1.147 1.708 2.2 3.229 2.342 3.379.141.149 1.686-1.078 3.435-2.728 3.132-2.955 7.728-6.155 15.049-10.476 2.095-1.237 3.793-2.527 3.873-2.942.254-1.312-2.075-6.43-3.693-8.119Zm-67.075-11.979c-3.328-.486-5.054.084-7.69 2.544-2.984 2.783-5.211 7.302-6.084 12.348-.832 4.809-.186 9.369 1.548 10.926.538.482 3.559 1.248 9.028 2.287 8.744 1.662 10.275 1.812 11.46 1.116.684-.401.608-.59-.88-2.191-3.352-3.61-5.576-8.872-6.451-15.265-.476-3.477-.229-7.239.696-10.586.223-.808.049-.934-1.627-1.179Zm13.25-2.543c-.932-.606-1.124-.606-2.301.008-2.943 1.536-4.58 5.481-4.545 10.955.05 7.93 3.493 14.833 8.944 17.933 1.171.665 2.689 1.198 3.375 1.184 1.14-.023 9.921-4.418 11.55-5.78.375-.313.679-1.122.676-1.796-.004-.991-.888-2.158-4.592-6.059-4.698-4.95-7.778-8.831-10.531-13.27-.858-1.383-2.017-2.812-2.576-3.175Zm6.039-14.513c-2.314-.77-4.314-1.292-4.445-1.16-.664.671.928 7.775 2.394 10.685 2.023 4.014 8.577 12.462 15.651 20.173 2.652 2.891 5.076 5.352 5.386 5.471.309.117 1.533-.655 2.72-1.717 4.011-3.59 8.853-6.452 17.424-10.302 1.311-.589 2.383-1.255 2.383-1.48-.001-.225-1.911-2.145-4.246-4.266a620.495 620.495 0 0 1-9.116-8.507c-6.105-5.829-7.059-6.291-12.938-6.282-5.268.009-9.521-.722-15.213-2.615Zm-39.601 11.945c-.261-.775-3.023 1.12-4.78 3.279-1.84 2.262-2.821 4.941-2.405 6.571.443 1.737 1.153 1.231 2.716-1.935.508-1.03 1.753-3.139 2.767-4.687 1.013-1.547 1.779-3 1.702-3.228Zm77.509-13.537c.227-1.809.172-2.201-.284-2.021-.311.123-2.153.834-4.092 1.58-6.001 2.311-6.181 3.07-1.664 7.044 1.567 1.379 3.028 2.506 3.246 2.506.811-.003 2.233-4.639 2.794-9.109Zm-.255-29.324c-.838-6.296-.93-6.384-4.595-4.422-3.962 2.122-9.36 4.214-13.839 5.365-3.556.913-5.53 1.137-11.75 1.331-6.972.218-7.8.162-12.255-.829-5.567-1.24-6.589-1.297-6.934-.389-.655 1.727 4.03 16.972 6.01 19.553.564.735 1.816 1.794 2.781 2.354 2.864 1.658 9.313 3.522 13.605 3.931 8.179.781 14.451-.311 21.796-3.794 3.676-1.744 4.579-2.562 5.403-4.902.782-2.219.669-11.508-.222-18.198Zm-90.637-69.429c-4.254-1.215-6.423-1.297-9.929-.375-4.096 1.078-7.014 2.807-9.519 5.64-5.242 5.929-6.906 12.332-6.861 26.398l.022 6.667-1.676 1.648c-2.195 2.159-3.398 4.285-4.579 8.098-.816 2.632-.964 3.997-.946 8.728.024 6.45.943 10.274 3.34 13.904 1.329 2.012 3.295 3.526 3.851 2.966.151-.152-.064-1.381-.479-2.731-.857-2.795-.641-4.423.644-4.836 1.709-.549 3.848 1.829 5.331 5.924.441 1.22 1.094 2.15 1.73 2.469 1.771.888 3.675.658 4.201-.508.375-.832.294-1.409-.436-3.087-1.062-2.444-1.208-5.351-.287-5.709 1.286-.499 2.753.305 4.076 2.235.737 1.076 2.112 2.748 3.057 3.715 1.411 1.445 1.992 1.758 3.254 1.753 3.903-.014 4.198-2.26 1.087-8.295-2.337-4.533-2.774-6.057-2.186-7.622.612-1.627 1.808-1.402 3.417.642 1.693 2.152 2.434 2.765 3.36 2.779 1.135.016 1.731-1.639 1.718-4.771-.025-5.743-2.447-9.771-7.141-11.878-1.735-.779-2.8-1.55-3.191-2.31-.743-1.446-1.806-14.136-1.41-16.828.167-1.132.709-2.471 1.265-3.121.935-1.095 1.121-1.137 4.85-1.115 5.875.036 11.891 2.302 19.471 7.334 3.469 2.303 4.329 2.647 4.782 1.908.299-.493-4.613-19.556-5.455-21.17-1.516-2.905-7.53-6.214-15.361-8.452Zm96.075 43.84c-2.742-.114-5.061-.154-5.152-.09-.181.128 3.44 16.416 4.43 19.927.355 1.26.991 2.425 1.528 2.798 1.132.788 3.727.764 7.587-.07 4.194-.905 4.374-1.21 2.518-4.24-2.179-3.558-3.881-7.869-4.662-11.805-.371-1.874-.808-4.061-.969-4.86l-.294-1.454-4.986-.206Zm-13.683-7.326c-.459-.455-.764-.37-1.8.508-1.842 1.562-4.747 2.907-9.866 4.57-7.603 2.469-11.018 2.983-19.929 3-7.308.013-8.201-.07-12.052-1.115-4.813-1.308-7.276-1.839-7.275-1.569.004.793 4.867 14.485 5.782 16.278 1.929 3.78 5.065 5.498 13.242 7.255 2.931.63 11.007 1.064 13.261.712 9.534-1.489 20.555-5.388 22.587-7.991.521-.668.848-1.704.845-2.677-.008-2.115-4.091-18.269-4.795-18.971Zm49.106-26.836c-3.239-1.718-11.814 8.069-14.703 16.78-1.257 3.792-1.416 7.543-.431 10.21.871 2.361.85 3.5-.081 4.349-1.099 1.002-2.455.854-3.623-.398-.563-.603-1.024-1.233-1.024-1.4-.001-.168-.289-.984-.64-1.815-.544-1.29-.753-1.45-1.417-1.091-.429.231-1.193 1.284-1.699 2.338-.839 1.75-.899 2.342-.681 6.761.43 8.697 3.363 14.94 8.671 18.456 1.394.924 3.845.86 5.054-.13l.978-.8-1.57-3.15c-1.732-3.478-1.989-5.543-.822-6.607 1.572-1.433 3.119-.546 4.805 2.757 1.723 3.374 4.708 4.493 6.68 2.506.814-.819.815-2.697.005-5.332-.802-2.61-.814-6.298-.028-8.554.339-.972.617-1.826.617-1.901 0-.072-1.378-1.492-3.062-3.155-2.304-2.276-3.272-3.589-3.917-5.306-1.967-5.244-1.517-9.133 1.057-9.143 1.535-.006 2.026.631 2.542 3.294.498 2.575 2.28 5.995 3.703 7.106.685.534 1.673.786 3.064.781 1.715-.006 2.252-.208 3.263-1.226 1.021-1.029 1.208-1.549 1.202-3.34-.005-1.303-.396-3.037-1.014-4.494-.554-1.305-1.146-3.494-1.316-4.864-.676-5.462-3.323-11.417-5.613-12.632Zm6.776 37.17c-1.846-1.371-2.393-1.341-2.715.15-.51 2.364.853 6.479 2.876 8.684.49.535 1.627 1.346 2.526 1.803 2.37 1.204 5.858 1.367 7.924.371 3.106-1.497 4.787-4.247 3.82-6.252-.51-1.057-.701-1.111-4.682-1.325-4.373-.235-6.414-.953-9.749-3.431Zm18.901-10.889c-.494-.671-.886-.721-3.221-.419-3.527.457-7.38.517-8.758.136-.908-.251-1.165-.152-1.379.533-.145.462-.925 1.715-1.734 2.782-1.684 2.224-1.602 2.577 1.027 4.423 3.006 2.111 8.432 1.743 12.337-.837 2.094-1.383 3.008-4.881 1.728-6.618Zm-61.579 5.623c-.299-.77-2.907-1.506-4.182-1.181-1.17.298-1.226.813-.152 1.383.443.234 1.653.423 2.689.419 1.493-.005 1.834-.134 1.645-.621Zm-72.173-30.687c-1.055.004-1.011.384.944 8.098 2.461 9.716 3.698 13.124 5.36 14.774 1.652 1.639 5.279 2.987 11.503 4.275 3.244.671 12.066 1.082 15.361.715 5.982-.666 10.581-1.845 16.835-4.318 5.242-2.072 6.203-2.848 6.161-4.972-.038-1.959-1.656-6.308-2.551-6.861-.469-.29-2.37-.243-6.087.15-10.78 1.14-21.91-.368-31.793-4.306-3.025-1.206-11.052-5.182-13.293-6.585-.855-.535-1.953-.972-2.44-.97Zm129.283 12.031c-2.104-1.512-4.631-2.194-7.491-2.022-2.246.136-2.282.158-2.218 1.384.101 1.966 1.854 6.103 3.118 7.357.947.94 1.507 1.139 3.157 1.117 2.087-.026 4.679-.78 5.741-1.668 1.443-1.206.284-4.306-2.307-6.168Zm-59.248-67.946c-.007-1.852-23.722-3.611-32.62-2.418-7.453.999-20.122 4.574-26.558 7.494-5.918 2.685-14.062 7.247-15.512 8.69l-1.415 1.407.5 3.947c.275 2.171.506 5.333.512 7.027.013 3.43 1.399 13.033 2.361 16.353.858 2.965 2.826 5.378 6.254 7.671 7.499 5.017 17.842 8.935 28.695 10.872 4.423.789 13.766 1.068 15.317.457 1.17-.461 1.122-.5-3.027-2.487-3.541-1.696-5.292-2.249-8.495-4.234-3.202-1.985-6.826-3.693-7.215-4.438l-.707-1.354 2.011-2.124c1.502-1.587 2.214-2.06 2.814-1.872.442.138 3.663 2.396 7.267 4.779 3.603 2.383 3.867 3.138 8.182 5.189 7.334 3.486 16.395 3.637 23.602.394 6.638-2.986 10.535-12.07 8.363-19.492-.818-2.794-2.032-4.964-2.977-5.323-.351-.133-1.304.039-2.117.382-3.441 1.453-10.17.234-13.276-2.405-2.256-1.916-4.019-5.36-5.433-10.614-.964-3.582-1.426-4.613-2.598-5.79-1.301-1.306-1.473-1.369-1.943-.72-.284.392-.723 2.588-.975 4.88-.684 6.224-2.365 10.306-5.58 13.547-3.989 4.02-8.89 5.305-14.564 3.816-7.151-1.876-10.59-5.487-13.603-14.287-1.331-3.887-1.795-4.616-2.93-4.612-.843.003-9.67 4.21-12.879 6.139l-1.945 1.169-1.12-1.026c-1.6-1.465-2.501-3.673-1.782-4.371.301-.293 2.881-1.505 5.732-2.696 2.851-1.19 8.636-3.845 12.856-5.9 9.923-4.831 11.294-5.14 21.791-4.916 6.966.15 8.163.279 10.182 1.099 3.498 1.42 6.634 1.3 9.862-.378 2.791-1.45 6.567-2.596 8.596-2.608 1.655-.009 4.374-.784 4.374-1.247Zm22.775-29.177c-3.394.012-5.325.829-12.894 5.45-7.08 4.325-10.429 5.895-15.237 7.144-6.379 1.657-12.876 2.235-25.854 2.3-13.875.07-16.292-.168-32.245-3.169-11.686-2.198-14.652-2.453-20.947-1.806-6.202.637-10.999 1.85-15.29 3.864-4.416 2.073-8.738 6.279-10.747 10.459-2.848 5.927-3.66 12.52-2.137 17.352 2.429 7.704 10.556 14.165 21.141 16.808 5.146 1.285 9.314 1.673 10.022.934.601-.63.667-5.586.105-7.964-.362-1.534-.799-2.294-2.593-4.514-.668-.826-.819-1.4-.606-2.283.912-3.768 15.106-13.545 25.024-17.237 15.385-5.726 32.017-7.386 49.195-4.909 5.39.777 9.3 1.092 13.59 1.092 5.499 0 6.283-.096 9.001-1.1 3.842-1.422 8.208-4.364 10.944-7.374 4.493-4.946 5.962-11.171 3.267-13.847-1.079-1.07-1.508-1.209-3.739-1.2Zm-12.171 35.535c-.982-1.308-2.316-1.907-3.124-1.404-.462.288-.383.93.44 3.595.551 1.784 1.318 3.885 1.705 4.668l.704 1.425.553-1.014c.894-1.64.73-5.929-.278-7.27Zm-48.999-53.754c-7.379-.017-9.274.446-15.95 3.892-7.611 3.93-14.525 10.919-15.966 16.138-.685 2.485-.381 2.764 3.668 3.367 1.762.263 6.478 1.03 10.478 1.706 4.001.676 9.612 1.423 12.469 1.66 9.531.793 29.515.107 33.988-1.166 3.524-1.003 3.63-1.626 1.071-6.317-4.247-7.788-8.76-13.34-12.802-15.752-1.241-.74-4.116-1.834-6.388-2.43-3.572-.937-4.999-1.086-10.568-1.098Z" clip-rule="evenodd"/><path fill="#000" fill-rule="evenodd" d="M1008.82 32.968c4.81-1.293 9.35-1.747 10.47-1.046 2.12 1.33 1.89 6.232-.69 14.214-1.09 3.387-2.31 6.248-3.33 7.847-3.93 6.15-9.72 10.556-16.822 12.8-3.261 1.032-3.678 1.315-4.809 3.267-.681 1.177-1.421 2.703-1.644 3.392-.383 1.181-.154 1.128 3.977-.93 3.693-1.839 5.028-2.218 8.498-2.405 5-.268 8.82.198 13.12 1.596 5.58 1.815 7.68 3.748 6.85 6.311-.52 1.617-10.08 11.02-13.04 12.832-3.93 2.405-9.02 2.656-17.995.89-2.618-.514-5.085-.814-5.482-.666-.396.149-.929.915-1.184 1.703-.597 1.841-4.403 30.322-4.12 30.828.118.209.387.155.598-.119.212-.274 1.897-2.068 3.745-3.987 6.824-7.087 11.166-9.573 18.708-10.715 7.87-1.192 13.1 1.096 11.03 4.821-1.65 2.971-6.27 7.15-10.01 9.064-4.51 2.309-7.882 2.893-13.753 2.379-4.403-.386-4.51-.364-6.49 1.277-1.107.918-2.137 2.048-2.287 2.512l-.104.293-7.574-4.003c.37-3.246.697-9.707.434-10.208-.222-.42-2.185-1.943-4.364-3.384-2.178-1.441-5.178-3.783-6.667-5.205-3.236-3.09-9.259-12.41-9.142-14.146.241-3.55 7.542-3.312 13.904.453 2.914 1.724 4.526 3.315 7.2 7.104.975 1.38 1.099 1.444 1.339.687.608-1.932 1.222-15.556.817-18.126-.452-2.862-1.137-3.66-6.246-7.272-8.865-6.27-11.212-10.965-11.836-23.682-.341-6.964.032-8.03 2.897-8.27 1.423-.12 2.866.23 5.922 1.435 9.455 3.73 15.984 11.63 17.074 20.662.344 2.848.591 3.576 1.01 2.98 1.221-1.742 1.718-4.14 1.613-7.79-.136-4.732 1.395-11.178 3.592-15.125 3.289-5.91 9.111-10.738 14.791-12.268Zm6.1 43.436c-3.68-1.195-9.17-1.277-13.28-.198-2.549.67-8.773 3.915-9.03 4.71-.167.514.657.718 1.164.288.62-.526 6.816-1.642 9.046-1.628 2.22.014 4.08.996 3.76 1.982-.12.374-2.71 1.502-5.75 2.507-3.042 1.006-5.783 1.94-6.091 2.075-.811.357 2.195 1.164 5.1 1.37 5.771.408 9.401-1.124 14.551-6.138 1.91-1.857 3.51-3.506 3.57-3.666.05-.159-1.32-.744-3.04-1.302Zm-42.546-25.751c-1.978-1.28-5.062-2.596-5.186-2.215-.147.452.256 8.547.497 10.01.688 4.166 2.952 7.676 7.041 10.917 1.282 1.017 2.577 1.928 2.878 2.026.3.096-.771-2.418-2.38-5.588-2.479-4.883-2.809-5.86-2.164-6.398.418-.35 1.129-.591 1.58-.537 1.1.132 3.529 2.662 5.971 6.222 1.102 1.606 2.077 2.695 2.167 2.42.42-1.296-.793-5.848-2.268-8.516-1.731-3.13-4.56-6.03-8.136-8.341Zm42.206-13.86c-.17-.053-1.87.506-3.79 1.242-7 2.69-11.853 7.756-14.121 14.747-.732 2.257-1.173 4.154-.982 4.217.193.06 1.921-1.933 3.842-4.43 4.601-5.987 7.411-7.746 7.911-4.958.3 1.623-.15 2.508-4.04 8.055-2 2.852-3.581 5.205-3.511 5.227.471.15 5.691-3.378 7.111-4.805 3.45-3.464 4.94-6.192 6.54-12.01 1.42-5.144 1.69-7.074 1.04-7.285Z" clip-rule="evenodd"/><path fill="#000" d="m977.199 168.613-.587 1.67c-2.876-.511-4.277 9.249-4.359 9.222-.082-.026-.246.252-.365.618-.526 1.622.218 3.256 2.561 5.63 3.501 3.547 7.659 11.32 8.289 15.497.269 1.785.348 3.681.175 4.215-.469 1.446-2.26 2.59-3.451 2.204-1.319-.428-2.004-1.937-2.413-5.321-.465-3.854-1.757-6.855-3.941-9.159l-1.919-2.024-.225 1.647c-.125.906-.413 2.953-.641 4.55-1.162 8.13-5.148 14.79-8.249 13.784-.597-.194-1.145-.6-1.22-.903-.074-.303.824-3.715 1.996-7.582 2.75-9.076 2.702-12.163-.206-13.105-1.724-.559-5.652 1.279-9.921 4.643-2.738 2.158-3.363 2.442-4.533 2.063-1.133-.368-1.348-.705-1.303-2.035.129-3.751 8.351-9.874 13.958-10.394 2.47-.229 2.889-.425 3.104-1.451.24-1.148.113-1.24-4.107-2.949-2.393-.969-4.275-1.948-5.533-2.875l7.726-2.104c2.971 1.294 3.285 1.348 3.244.567-.289-5.462.324-9.089 2.022-11.638l9.898 5.23Z"/></svg>