<svg xmlns="http://www.w3.org/2000/svg" width="1131" height="483" fill="none"><path fill="#000" d="M110.401 435.849c-3.431-10.706-6.655-23.271-9.672-37.696l9.548-.868c.992 6.282 1.86 11.511 2.604 15.686a399.543 399.543 0 0 0 2.728 13.206h.496c1.777-4.63 4.071-11.367 6.882-20.212-.868-3.679-1.447-6.242-1.736-7.688l9.362-.868c1.157 6.034 2.232 11.16 3.224 15.376a364.475 364.475 0 0 0 3.472 13.392h.682c.909-4.34 1.715-8.598 2.418-12.772.702-4.175 1.508-9.548 2.418-16.12l8.99.93c-2.604 13.144-5.828 25.688-9.672 37.634h-9.858a336.42 336.42 0 0 1-5.828-17.608h-.62c-2.067 6.53-4.072 12.4-6.014 17.608h-9.424Zm80.992.558c-5.704 0-9.982-1.612-12.834-4.836-2.811-3.266-4.216-8.04-4.216-14.322 0-6.738 1.633-11.822 4.898-15.252 3.265-3.472 7.957-5.208 14.074-5.208 5.704 0 9.961 1.632 12.772 4.898 2.852 3.224 4.278 7.977 4.278 14.26 0 6.737-1.633 11.842-4.898 15.314-3.265 3.43-7.957 5.146-14.074 5.146Zm1.302-8.556c2.645 0 4.898-.372 6.758-1.116a21.263 21.263 0 0 0 1.302-4.588c.289-1.571.434-3.328.434-5.27 0-2.687-.248-4.857-.744-6.51-.455-1.654-1.364-2.894-2.728-3.72-1.323-.868-3.224-1.302-5.704-1.302-2.645 0-4.898.372-6.758 1.116a24.103 24.103 0 0 0-1.364 4.588c-.248 1.488-.372 3.244-.372 5.27 0 2.686.227 4.856.682 6.51.496 1.653 1.405 2.914 2.728 3.782 1.364.826 3.286 1.24 5.766 1.24Zm71.365 8.308c-1.902 0-3.369-.31-4.402-.93-1.034-.662-1.902-1.654-2.604-2.976l-3.162-5.766c-.62-1.116-1.116-1.922-1.488-2.418-.372-.496-.93-.93-1.674-1.302-.744-.414-1.757-.641-3.038-.682h-2.232v13.764h-9.238v-37.2c3.72-1.24 8.08-1.86 13.082-1.86 5.125 0 9.072.971 11.842 2.914 2.81 1.901 4.216 4.794 4.216 8.68 0 2.604-.703 4.898-2.108 6.882-1.364 1.942-3.348 3.534-5.952 4.774v.558c1.24.33 2.294.826 3.162 1.488.909.62 1.818 1.508 2.728 2.666l3.72 5.084 2.48.558v5.208c-1.158.372-2.935.558-5.332.558Zm-10.168-21.576c1.529-1.116 2.294-2.811 2.294-5.084 0-1.695-.558-2.873-1.674-3.534-1.075-.703-2.811-1.054-5.208-1.054-1.406 0-2.687.124-3.844.372v9.3h8.432Zm40.99-17.174h12.958l4.712 19.84h.372l4.712-19.84h12.958l1.488 38.44h-9.362l-.682-18.6.248-10.354-.558-.124-5.518 19.84h-6.944l-5.518-19.84-.558.124.248 10.354-.682 18.6h-9.362l1.488-38.44Zm117.059 39.432c-10.416 0-15.624-3.72-15.624-11.16 0-2.728.682-4.94 2.046-6.634 1.364-1.695 3.41-3.038 6.138-4.03v-.496c-1.158-1.116-2.005-2.15-2.542-3.1-.496-.992-.744-2.17-.744-3.534 0-3.266 1.136-5.684 3.41-7.254 2.314-1.571 5.497-2.356 9.548-2.356 2.769 0 5.208.413 7.316 1.24 2.149.826 3.782 1.818 4.898 2.976v2.294c0 .826-.083 1.901-.248 3.224-.166 1.281-.352 2.211-.558 2.79h-7.75l-.62-3.658c-.91-.248-2.046-.372-3.41-.372-1.199 0-2.046.165-2.542.496-.496.33-.744.806-.744 1.426 0 .661.144 1.219.434 1.674.289.413.847 1.012 1.674 1.798l7.936 7.13c.248-.827.413-1.55.496-2.17.124-.662.227-1.447.31-2.356l8.928 1.798c-.414 2.066-.744 3.596-.992 4.588-.248.95-.6 2.108-1.054 3.472l7.626 7.254-6.386 4.526-3.968-4.464h-.496c-.414 1.322-.889 2.397-1.426 3.224-3.059 1.116-6.944 1.674-11.656 1.674Zm.124-8.308c1.777 0 3.348-.083 4.712-.248.124-.331.186-.6.186-.806l-7.626-7.006c-1.364.537-2.356 1.157-2.976 1.86-.579.661-.868 1.55-.868 2.666 0 1.24.516 2.149 1.55 2.728 1.033.537 2.707.806 5.022.806Zm115.204 7.626c-1.901 0-3.369-.31-4.402-.93-1.033-.662-1.901-1.654-2.604-2.976l-3.162-5.766c-.62-1.116-1.116-1.922-1.488-2.418-.372-.496-.93-.93-1.674-1.302-.744-.414-1.757-.641-3.038-.682h-2.232v13.764h-9.238v-37.2c3.72-1.24 8.081-1.86 13.082-1.86 5.125 0 9.073.971 11.842 2.914 2.811 1.901 4.216 4.794 4.216 8.68 0 2.604-.703 4.898-2.108 6.882-1.364 1.942-3.348 3.534-5.952 4.774v.558c1.24.33 2.294.826 3.162 1.488.909.62 1.819 1.508 2.728 2.666l3.72 5.084 2.48.558v5.208c-1.157.372-2.935.558-5.332.558Zm-10.168-21.576c1.529-1.116 2.294-2.811 2.294-5.084 0-1.695-.558-2.873-1.674-3.534-1.075-.703-2.811-1.054-5.208-1.054-1.405 0-2.687.124-3.844.372v9.3h8.432Zm54.955 21.824c-5.704 0-9.982-1.612-12.834-4.836-2.811-3.266-4.216-8.04-4.216-14.322 0-6.738 1.633-11.822 4.898-15.252 3.265-3.472 7.957-5.208 14.074-5.208 5.704 0 9.961 1.632 12.772 4.898 2.852 3.224 4.278 7.977 4.278 14.26 0 6.737-1.633 11.842-4.898 15.314-3.265 3.43-7.957 5.146-14.074 5.146Zm1.302-8.556c2.645 0 4.898-.372 6.758-1.116a21.263 21.263 0 0 0 1.302-4.588c.289-1.571.434-3.328.434-5.27 0-2.687-.248-4.857-.744-6.51-.455-1.654-1.364-2.894-2.728-3.72-1.323-.868-3.224-1.302-5.704-1.302-2.645 0-4.898.372-6.758 1.116a24.103 24.103 0 0 0-1.364 4.588c-.248 1.488-.372 3.244-.372 5.27 0 2.686.227 4.856.682 6.51.496 1.653 1.405 2.914 2.728 3.782 1.364.826 3.286 1.24 5.766 1.24Zm59.151 8.556c-5.704 0-9.982-1.612-12.834-4.836-2.811-3.266-4.216-8.04-4.216-14.322 0-6.738 1.632-11.822 4.898-15.252 3.265-3.472 7.956-5.208 14.074-5.208 5.704 0 9.961 1.632 12.772 4.898 2.852 3.224 4.278 7.977 4.278 14.26 0 6.737-1.633 11.842-4.898 15.314-3.266 3.43-7.957 5.146-14.074 5.146Zm1.302-8.556c2.645 0 4.898-.372 6.758-1.116a21.263 21.263 0 0 0 1.302-4.588c.289-1.571.434-3.328.434-5.27 0-2.687-.248-4.857-.744-6.51-.455-1.654-1.364-2.894-2.728-3.72-1.323-.868-3.224-1.302-5.704-1.302-2.646 0-4.898.372-6.758 1.116a24.103 24.103 0 0 0-1.364 4.588c-.248 1.488-.372 3.244-.372 5.27 0 2.686.227 4.856.682 6.51.496 1.653 1.405 2.914 2.728 3.782 1.364.826 3.286 1.24 5.766 1.24Zm52.173-21.762h-12.276v-8.68h33.852v8.68h-12.276v29.76h-9.3v-29.76Zm97.989 30.256c-5.952 0-11.057-1.199-15.314-3.596l3.038-7.502c3.844 2.025 8.039 3.038 12.586 3.038 2.273 0 4.133-.145 5.58-.434.33-.703.496-1.55.496-2.542 0-1.075-.393-1.86-1.178-2.356-.786-.538-2.294-1.075-4.526-1.612-3.224-.786-5.828-1.633-7.812-2.542-1.943-.91-3.472-2.191-4.588-3.844-1.116-1.654-1.674-3.865-1.674-6.634 0-3.638 1.26-6.469 3.782-8.494 2.562-2.026 6.262-3.038 11.098-3.038 2.728 0 5.104.268 7.13.806a30.726 30.726 0 0 1 5.766 2.108v2.17c0 .992-.124 2.356-.372 4.092-.207 1.736-.434 2.976-.682 3.72h-7.688l-.558-4.526a23.706 23.706 0 0 0-3.906-.31c-1.736 0-3.059.227-3.968.682-.868.454-1.302 1.281-1.302 2.48 0 1.198.537 2.108 1.612 2.728 1.074.578 2.934 1.157 5.58 1.736 2.893.62 5.228 1.364 7.006 2.232 1.818.868 3.203 2.128 4.154 3.782.95 1.612 1.426 3.74 1.426 6.386 0 3.637-1.282 6.468-3.844 8.494-2.522 1.984-6.469 2.976-11.842 2.976Zm57.166.124c-5.539 0-9.548-1.24-12.028-3.72-2.48-2.48-3.72-5.994-3.72-10.54v-24.8h9.3v22.754c0 1.984.206 3.534.62 4.65.413 1.116 1.095 1.922 2.046 2.418.992.454 2.397.682 4.216.682 1.612 0 2.934-.062 3.968-.186a18.478 18.478 0 0 0 3.224-.806v-29.512h9.3v30.07c0 3.058-1.55 5.332-4.65 6.82-3.1 1.446-7.192 2.17-12.276 2.17Zm44.101-37.448c1.86-.62 3.989-1.096 6.386-1.426a47.649 47.649 0 0 1 7.316-.558c5.539 0 9.652 1.074 12.338 3.224 2.728 2.108 4.092 5.538 4.092 10.292 0 4.753-1.384 8.39-4.154 10.912-2.769 2.521-6.985 3.782-12.648 3.782h-4.092v10.602h-9.238v-36.828Zm11.904 17.794c1.902 0 3.452-.042 4.65-.124a17.856 17.856 0 0 0 3.472-.682c.579-1.447.868-3.1.868-4.96 0-1.984-.496-3.39-1.488-4.216-.992-.868-2.728-1.302-5.208-1.302-1.818 0-3.472.165-4.96.496v10.788h2.666Zm42.857-17.794c1.86-.62 3.989-1.096 6.386-1.426a47.649 47.649 0 0 1 7.316-.558c5.539 0 9.652 1.074 12.338 3.224 2.728 2.108 4.092 5.538 4.092 10.292 0 4.753-1.384 8.39-4.154 10.912-2.769 2.521-6.985 3.782-12.648 3.782h-4.092v10.602h-9.238v-36.828Zm11.904 17.794c1.902 0 3.452-.042 4.65-.124a17.856 17.856 0 0 0 3.472-.682c.579-1.447.868-3.1.868-4.96 0-1.984-.496-3.39-1.488-4.216-.992-.868-2.728-1.302-5.208-1.302-1.818 0-3.472.165-4.96.496v10.788h2.666Zm42.857-19.406h9.298v29.76h16.93v8.68h-26.228v-38.44Zm58.308 26.97h-1.49a114.915 114.915 0 0 1-7.07-11.904c-2.11-4.134-4.11-8.639-6.01-13.516l9.17-1.86c2.98 8.184 6.08 14.838 9.3 19.964h1.43c3.3-5.332 6.4-11.987 9.3-19.964l9.17 1.86c-1.9 4.877-3.9 9.382-6.01 13.516-2.11 4.092-4.46 8.06-7.07 11.904h-1.49v11.47h-9.23v-11.47ZM63.594 24.458l2.322.056c43.907 1.047 83.568 26.635 118.983 76.763 17.329 29.138 25.59 60.595 24.785 94.37l-.232 9.711c-1.333 55.869-33.641 102.763-96.924 140.68-12.119 6.329-25.357 9.322-39.711 8.98l-2.201-5.122.116-4.855c2.476-3.461 18.183-9.634 47.12-18.519 50.208-38.792 75.894-82.535 77.055-131.227 1.527-64.032-30.95-113.316-97.434-147.851l-9.921-.237c1.098 24.809 1.531 42.068 1.3 51.779-.853 35.745-2.854 84.206-6.003 145.383 1.249 18.476 1.585 39.817 1.007 64.022l-7.504 4.679-2.533-.06c-4.081-.097-6.467-3.393-7.157-9.887.433-18.154-.065-29.712-1.496-34.675 2.142-24.872 3.463-47.792 3.964-68.761l2.115-88.66c.644-27.02-.425-50.068-3.21-69.143l-2.532-.06c-14.073-.336-32.145 1.697-54.217 6.099-3.377-.081-5.027-1.74-4.95-4.976l.12-5.067c.236-9.85 19.281-14.325 57.138-13.422ZM302.533 26.356c11.486 2.527 17.179 5.901 17.078 10.123l-.06 2.533c-.057 2.393-2.579 4.797-7.565 7.212l-19.631-.468c-2.676 41.334-4.304 74.174-4.885 98.521l-4.169 174.786c21.391.51 31.928 7.379 31.613 20.608-3.274 1.471-5.755 2.186-7.444 2.146-24.691-3.828-37.811-5.76-39.359-5.797-5.91-.141-20.746 1.969-44.506 6.331l-2.417-4.916.176-7.388c.171-7.177 14.273-10.995 42.305-11.452.04-1.689.873-4.134 2.498-7.333 3.67-82.991 6.062-147.847 7.176-194.569l1.642-68.817-2.534-.06c-8.303-.198-21.449 1.952-39.439 6.452l-4.89-7.51.12-5.066c.195-8.162 24.959-13.274 74.291-15.336ZM381.795 19.375l22.165.53c29.835.71 52.354 21.806 67.558 63.285 1.642 2.01 2.35 7.73 2.125 17.159l-.06 2.534c-.705 29.553-26.803 55.191-78.295 76.915l-2.654 5.006-.176 7.388c-.221 9.288 16.588 27.713 50.429 55.274 40.874 39.698 72.321 64.315 94.341 73.852 1.615 3.136 2.401 5.619 2.357 7.449l-7.504 4.679-2.533-.061c-12.103-.288-57.209-36.708-135.317-109.257l-2.533-.061-2.596 64.57c-.548 22.939-4.058 34.331-10.532 34.177l-2.533-.061c-1.266-.03-3.67-2.551-7.212-7.564 3.878-26.802 6.694-62.219 8.449-106.251-20.915-14.58-31.305-24.684-31.171-30.313.151-6.333 10.874-10.161 32.168-11.483l2.649-4.795c.517-21.673-.2-59.497-2.152-113.474l7.505-4.679 2.322.056c6.563 2.269 9.694 9.736 9.392 22.401l-2.23 93.515c41.475-15.063 62.53-35.893 63.165-62.491-9.612-39.797-28.842-60.04-57.692-60.727-2.918-1.619-6.207-2.472-9.866-2.56-15.952 1.732-29.228 6.344-39.827 13.836l-9.71-.232c-3.378-.08-5.008-2.584-4.89-7.509.215-9.007 15.168-16.042 44.858-21.107ZM566.358 16.386c46.002 1.8 68.914 6.43 68.736 13.89-.064 2.673-3.45 5.902-10.158 9.684l-4.795-2.649-36.941-.88c-6.205 53.5-9.883 104.385-11.034 152.655l-3.228 135.312c-.057 2.392-2.578 4.796-7.564 7.212l-2.533-.061c-2.252-.053-4.656-2.575-7.212-7.564 4.783-129.713 9.517-224.857 14.201-285.435-1.548-.037-2.302-.9-2.262-2.588-20.342 2.753-40.927 3.881-61.755 3.385l-2.418-4.916.116-4.855c.128-5.348 20.773-9.01 61.937-10.984 3.237.077 4.873-.659 4.91-2.206ZM771.527 26.137c5.207.125 9.072 9.299 11.594 27.524l-10.337 203.153c1.517 7.217 1.931 25.321 1.239 54.311l-.584 24.487c-.057 2.393-2.579 4.797-7.565 7.212l-2.533-.06-7.272-5.032c6.636-124.739 10.396-205.615 11.279-242.627-1.088-19.317-1.53-33.268-1.325-41.852l-2.533-.06c-14.419 20.073-27.633 57.495-39.641 112.265-.265 11.117-4.542 19.253-12.832 24.406l-7.389-.177c-7.177-.171-15.314-39.792-24.411-118.862l-4.855-.116c-7.38 31.929-11.295 57.322-11.744 76.18l-.761 31.875c-1.463 43.616.467 92.593 5.789 146.932-2.691 6.554-5.233 9.802-7.625 9.745l-4.855-.115c-8.303-.199-10.94-54.966-7.909-164.303l.529-22.165c1.52-63.75 12.252-100.457 32.196-110.12 12.385.296 19.892 30.89 22.523 91.783 2.252.053 3.694 7.48 4.327 22.28 3.377.081 12.236-25.969 26.576-78.149 13.592-32.625 24.68-48.835 33.264-48.63l4.855.115ZM1119.22 19.646l2.54.06 7.27 5.032c-3.75 21.595-7.3 66.71-10.62 135.346.16 64.073-.09 110.111-.76 138.116 1.34 8.622 2 13.566 1.97 14.832-3.09 11.332-6.46 16.955-10.12 16.867l-5.07-.12c-10.97-.262-30.53-74.654-58.67-223.175l-4.86-.116c-9.32 42.584-13.32 92.335-12.01 149.253-.37 15.621 1.39 45.233 5.28 88.836l-4.92 2.418-4.85-.116c-8.31-.198-11.77-29.006-10.4-86.424 4.23-124.234 14.22-186.163 29.99-185.787l2.53.06c10.27.246 20.07 38.216 29.39 113.913l22.25 94.31 5.06.12 1.18-49.396c1.24-51.929 3.68-121.712 7.32-209.35l7.5-4.679Z"/><path fill="#000" fill-rule="evenodd" d="M886.598 10.76c3.596-.282 11.934.329 15.356 1.124 4.969 1.154 11.513 5.205 14.531 8.994 2.41 3.025 7.083 10.85 8.526 14.276.679 1.612 1.427 3.168 1.661 3.458.603.745 1.678.31 5.491-2.22 7.354-4.878 13.422-7.31 18.28-7.329 3.702-.014 5.391.634 7.309 2.802 3.73 4.216 4.494 11.053 1.828 16.364-1.213 2.414-8.856 10.522-10.904 11.566-.807.411-3.054 1.258-4.994 1.882-1.94.624-3.883 1.398-4.319 1.721-.754.56-.697.671 1.168 2.3 2.666 2.33 3.564 4.259 4.085 8.771.662 5.738.044 9.482-2.275 13.774l-1.852 3.428 1.53 4.331c1.933 5.473 2.406 11.606 1.233 16.003-1.38 5.174-5.686 10.251-10.7 12.618-2.998 1.414-4.777 1.879-10.623 2.773-2.387.365-4.488.812-4.668.994-.369.373 1.875 7.792 3.045 10.069 1.579 3.074 5.481 5.694 10.96 7.361 4.581 1.394 4.888 1.307 6.749-1.914.881-1.524 2.654-3.833 3.939-5.13 1.733-1.749 2.912-3.534 4.566-6.911 5.492-11.214 11.974-17.902 18.2-18.779 3.668-.517 5.301.92 9.223 8.118.616 1.128 7.968 2.72 8.682 2.873l.063.024c.353.641 4.994 2.862 5.984 2.858 9.176 2.236 5.644 29.278 5.629 29.392-.625-.267-.903-.951-2.114.037-.911.743-.933.887-.451 2.941.668 2.847.645 4.057-.123 6.339-1.518 4.509-6.354 7.831-11.429 7.85-3.55.014-3.538-.003-5.724 7.844-2.788 10.009-4.603 13.013-7.071 11.704-1.928-1.023-1.895-2.857.258-14.25.555-2.94.934-5.42.842-5.512-.092-.091-.967.12-1.944.469-.976.348-2.198.635-2.714.637-.515.002-2.125.816-3.575 1.809-4.385 3-8.262 4.109-11.428 3.269-1.373-.364-2.265-.29-4.954.408-1.803.469-5.147 1.231-7.43 1.695-2.639.536-4.339 1.097-4.667 1.541-.379.512-.509 3.314-.488 10.485.029 10.13-.402 15.068-1.958 22.464-1.426 6.777-1.546 6.409 3.879 11.966 5.458 5.591 7.796 8.824 9.938 13.738 1.521 3.49 1.554 3.528 3.234 3.753 2.401.322 3.13 1.169 4.905 5.707 2.059 5.263 5.217 11.712 5.854 11.954.278.105 2.012-.934 3.852-2.31 6.453-4.821 13.359-6.14 21.381-4.082 8.365 2.145 13.132 7.995 13.187 16.184.035 5.119-3.206 13.079-7.859 19.301-4.675 6.252-10.88 11.556-18.261 15.611-1.529.841-2.899 1.723-3.045 1.961-.146.238.504 1.136 1.443 1.997 1.864 1.708 2.079 2.658 1.241 5.492-.262.886-.378 1.708-.259 1.826.122.118 2.662.564 5.647.99 6.576.94 13.211 2.545 16.306 3.943 2.55 1.152 4.58 2.866 4.584 3.871.016 4.534-15.765 8.529-39.843 10.087-3.084.199-12.523.415-20.976.48-32.266.246-52.524-2.009-55.859-6.216-.982-1.239-1.114-2.248-.389-2.979.826-.833.098-1.043-4.753-1.373l-13.761-.935c-21.538-1.465-31.084-3.402-33.665-6.832l-.856-1.137.826-1.145c1.662-2.307 6.7-4.031 15.513-5.309 14.21-2.06 36.028-3.137 51.021-2.519 8.735.36 28.676 2.008 31.774 2.626l1.164.232-.684-1.593c-1.333-3.102-3.025-7.422-3.55-9.06-.706-2.207-5.172-11.032-8.65-17.095-2.229-3.885-2.839-5.326-2.994-7.067-.251-2.847.535-5.596 2.246-7.855.757-.999 1.375-1.961 1.375-2.14-.001-.178-.872-1.238-1.936-2.356-2.619-2.751-4.43-5.654-6.097-9.767-.767-1.894-1.594-3.509-1.837-3.589-.244-.08-1.637.68-3.098 1.689-5.249 3.622-11.929 6.382-18.513 7.65-4.59.884-14.218.692-17.223-.343-1.915-.66-1.973-.653-3.437.348-1.552 1.061-4.706 1.931-6.99 1.927-4.677-.008-11.923-2.875-16.502-6.529-3.597-2.871-4.173-2.756-5.061 1.009-.947 4.014-.897 8.228.152 12.778 1.61 6.978.451 12.932-3.328 17.098-2.657 2.929-5.137 4.112-9.132 4.358-3.998.247-6.403-.492-10.538-3.235-11.592-7.691-17.98-26.991-14.09-42.577 1.36-5.448 2.765-7.755 9.068-14.888 3.186-3.606 5.792-6.727 5.791-6.933-.002-.207-.925-.373-2.053-.368-1.129.004-2.166-.175-2.305-.397-.373-.598.406-3.343 2.538-8.951 1.788-4.7 2.07-5.165 4.833-7.945 3.297-3.319 7.299-5.767 11.402-6.978 3.272-.966 10.299-1.161 13.741-.382 3.816.863 11.895 4.965 16.44 8.347 3.344 2.489 4.945 3.369 8.117 4.463 2.174.749 5.895 2.179 8.269 3.178 2.375.998 4.576 1.715 4.891 1.592.315-.122.782-.686 1.038-1.252.386-.855.127-2.366-1.514-8.834-3.935-15.52-11.534-41.441-14.633-49.921-2.448-6.696-4.021-8.478-12.374-14.009-5.819-3.853-9.78-5.935-13.973-7.346-5.278-1.775-6.059-1.186-6.038 4.55.017 4.631.622 6.111 3.214 7.87 1.096.743 2.955 2.237 4.132 3.32 3.897 3.587 5.973 10.019 5.23 16.202-.366 3.039-1.065 4.579-2.858 6.296-1.175 1.126-1.278 1.446-1.271 3.951.004 1.5-.196 3.471-.444 4.38-1.1 4.019-5.792 6.359-10.516 5.245-2.234-.527-2.308-.515-3.997.664-2.345 1.638-6.121 1.899-9.793.676-1.629-.543-3.041-.761-3.85-.596-3.755.766-8.157-2.414-10.859-7.843-2.372-4.766-3.051-8.357-2.838-15.012.252-7.882 1.911-13.048 5.73-17.843l1.967-2.469-.028-7.563c-.05-13.438 2.009-20.483 7.901-27.038 2.575-2.865 5.216-4.533 9.704-6.13 6.679-2.376 13.787-1.718 22.908 2.121 2.128.896 4.046 1.519 4.263 1.385.509-.317.496-3.165-.02-4.507-.658-1.711-2.145-2.341-6.534-2.768-5.313-.518-8.079-1.242-13.105-3.431-11.407-4.97-17.12-11.085-18.907-20.238-2.334-11.958 2.243-24.32 11.731-31.677 5.495-4.26 12.156-6.525 21.67-7.368 3.432-.305 5.907-.73 6.578-1.129.591-.352 2.168-2.506 3.504-4.786 1.336-2.28 3.383-5.312 4.55-6.737 6.398-7.816 18.602-13.894 29.631-14.756Zm75.873 304.683c-1.45-.454-13.759.32-15.383.967-1.886.753-8.843 8.22-8.495 9.117.132.34.724.8 1.317 1.022 2.732 1.028 8.332.178 14.122-2.142 6.006-2.406 9.306-5.016 9.298-7.354-.004-.988-.23-1.413-.859-1.61Zm25.836-45.818c-2.14-.528-4.74.101-7.187 1.74-3.763 2.518-10.487 9.417-16.672 17.105-3.148 3.912-7.238 8.788-9.089 10.835-4.533 5.013-4.768 5.385-4.186 6.649.435.945.675 1.016 3.282.962 3.349-.07 3.615-.122 7.484-1.466 5.855-2.035 12.37-6.664 18.389-13.066 6.405-6.812 8.676-11.45 8.93-18.245l.16-4.239-1.111-.275Zm-40.081 7.726c-.003-.874-1.749.002-3.409 1.712-2.251 2.318-4.021 5.664-4.146 7.839-.123 2.129.56 2.153 1.73.06.544-.971 2.077-3.47 3.407-5.552 1.331-2.082 2.419-3.909 2.418-4.059Zm-13.424-38.478c-1.837-1.918-2.533-1.984-6.486-.622-3.866 1.332-7.541 3.247-11.781 6.139-8.035 5.48-8.316 7.057-2.738 15.368 1.146 1.709 2.2 3.229 2.341 3.379.141.15 1.687-1.077 3.435-2.727 3.133-2.956 7.729-6.155 15.049-10.477 2.095-1.236 3.794-2.526 3.874-2.942.254-1.311-2.075-6.429-3.694-8.118Zm-67.075-11.979c-3.328-.487-5.053.084-7.689 2.543-2.985 2.784-5.211 7.303-6.084 12.349-.832 4.808-.186 9.368 1.547 10.925.538.483 3.56 1.248 9.029 2.288 8.744 1.662 10.275 1.811 11.46 1.115.683-.4.607-.589-.88-2.191-3.352-3.609-5.576-8.871-6.452-15.265-.476-3.476-.228-7.238.697-10.586.223-.807.049-.933-1.628-1.178Zm13.251-2.544c-.933-.606-1.125-.605-2.301.009-2.943 1.535-4.58 5.48-4.545 10.954.05 7.931 3.493 14.834 8.943 17.933 1.171.666 2.69 1.198 3.375 1.185 1.141-.024 9.922-4.418 11.551-5.78.374-.314.678-1.122.676-1.797-.004-.991-.888-2.157-4.592-6.059-4.699-4.949-7.778-8.83-10.531-13.27-.858-1.382-2.017-2.811-2.576-3.175Zm6.038-14.513c-2.313-.769-4.313-1.291-4.444-1.159-.664.67.928 7.775 2.394 10.685 2.023 4.013 8.577 12.462 15.651 20.172 2.652 2.892 5.076 5.353 5.386 5.471.309.118 1.533-.655 2.719-1.717 4.012-3.589 8.853-6.451 17.425-10.302 1.311-.588 2.383-1.254 2.383-1.48-.001-.225-1.912-2.145-4.246-4.266a610.159 610.159 0 0 1-9.116-8.507c-6.106-5.828-7.059-6.291-12.938-6.282-5.268.009-9.522-.722-15.214-2.615Zm-39.6 11.945c-.262-.774-3.023 1.12-4.78 3.28-1.841 2.261-2.821 4.94-2.405 6.571.443 1.737 1.153 1.231 2.716-1.936.508-1.03 1.753-3.139 2.766-4.687 1.014-1.547 1.78-3 1.703-3.228Zm77.509-13.536c.227-1.81.172-2.202-.284-2.022-.312.123-2.153.834-4.092 1.581-6.001 2.31-6.181 3.069-1.664 7.044 1.567 1.378 3.027 2.506 3.246 2.505.811-.003 2.233-4.638 2.794-9.108Zm-.255-29.324c-.838-6.297-.931-6.385-4.595-4.422-3.962 2.122-9.36 4.214-13.84 5.364-3.555.913-5.529 1.137-11.75 1.332-6.971.218-7.799.162-12.255-.83-5.567-1.239-6.588-1.296-6.933-.389-.655 1.727 4.03 16.972 6.009 19.553.564.736 1.816 1.795 2.782 2.354 2.864 1.659 9.313 3.522 13.605 3.932 8.179.78 14.45-.312 21.795-3.795 3.676-1.743 4.579-2.562 5.404-4.901.782-2.22.669-11.509-.222-18.198Zm-90.637-69.429c-4.255-1.216-6.423-1.298-9.929-.375-4.096 1.077-7.015 2.807-9.519 5.64-5.242 5.929-6.906 12.331-6.861 26.398l.022 6.666-1.676 1.649c-2.196 2.158-3.398 4.284-4.58 8.098-.815 2.631-.963 3.997-.945 8.727.024 6.451.942 10.274 3.34 13.905 1.328 2.011 3.294 3.525 3.851 2.966.15-.152-.065-1.381-.479-2.732-.858-2.794-.641-4.422.644-4.835 1.708-.549 3.848 1.828 5.33 5.924.442 1.219 1.094 2.149 1.731 2.468 1.771.888 3.675.658 4.201-.508.375-.831.293-1.408-.436-3.087-1.062-2.443-1.208-5.351-.287-5.709 1.286-.499 2.753.305 4.075 2.235.738 1.076 2.113 2.748 3.058 3.715 1.41 1.446 1.992 1.759 3.254 1.754 3.903-.015 4.197-2.261 1.087-8.295-2.337-4.534-2.774-6.058-2.186-7.622.612-1.627 1.808-1.402 3.416.642 1.693 2.152 2.434 2.764 3.36 2.778 1.136.017 1.732-1.638 1.718-4.77-.025-5.743-2.446-9.771-7.14-11.879-1.735-.779-2.8-1.549-3.191-2.31-.743-1.445-1.807-14.135-1.41-16.828.167-1.132.709-2.47 1.264-3.12.936-1.096 1.121-1.138 4.851-1.115 5.874.035 11.891 2.301 19.47 7.334 3.469 2.303 4.33 2.646 4.783 1.908.299-.493-4.614-19.556-5.456-21.17-1.516-2.905-7.529-6.215-15.36-8.452Zm96.075 43.839c-2.743-.114-5.061-.153-5.153-.09-.18.129 3.441 16.416 4.43 19.927.356 1.261.991 2.426 1.528 2.799 1.133.787 3.728.763 7.587-.07 4.194-.906 4.375-1.211 2.519-4.241-2.179-3.557-3.882-7.869-4.662-11.804-.371-1.874-.808-4.062-.97-4.861l-.293-1.453-4.986-.207Zm-13.683-7.325c-.459-.456-.765-.37-1.8.508-1.842 1.561-4.747 2.907-9.866 4.569-7.603 2.469-11.019 2.984-19.93 3-7.307.014-8.201-.069-12.051-1.115-4.813-1.307-7.276-1.838-7.275-1.569.003.793 4.867 14.486 5.781 16.278 1.929 3.78 5.066 5.499 13.242 7.256 2.932.63 11.008 1.064 13.262.712 9.534-1.489 20.555-5.389 22.587-7.992.521-.668.848-1.704.844-2.676-.007-2.116-4.09-18.269-4.794-18.971Zm49.106-26.836c-3.24-1.718-11.815 8.068-14.703 16.779-1.257 3.792-1.416 7.544-.432 10.21.872 2.362.851 3.501-.08 4.349-1.1 1.003-2.455.854-3.624-.398-.562-.602-1.023-1.232-1.024-1.399-.001-.168-.288-.985-.639-1.816-.545-1.289-.753-1.45-1.418-1.091-.428.232-1.193 1.284-1.698 2.339-.84 1.75-.899 2.341-.681 6.76.429 8.697 3.363 14.94 8.671 18.457 1.394.923 3.845.86 5.054-.13l.978-.8-1.57-3.151c-1.733-3.478-1.989-5.542-.823-6.606 1.572-1.434 3.119-.546 4.806 2.757 1.722 3.373 4.708 4.493 6.68 2.505.813-.819.815-2.697.005-5.332-.802-2.609-.814-6.298-.028-8.554.339-.971.616-1.825.617-1.9 0-.073-1.379-1.493-3.062-3.156-2.304-2.276-3.273-3.588-3.917-5.305-1.967-5.244-1.518-9.134 1.057-9.144 1.534-.005 2.026.632 2.541 3.294.498 2.575 2.281 5.996 3.704 7.106.685.535 1.673.787 3.064.781 1.715-.006 2.252-.207 3.263-1.226 1.021-1.029 1.208-1.549 1.201-3.34-.005-1.303-.395-3.036-1.014-4.494-.553-1.304-1.145-3.493-1.315-4.864-.676-5.461-3.323-11.416-5.613-12.631Zm6.776 37.169c-1.846-1.371-2.393-1.341-2.715.151-.51 2.364.853 6.478 2.876 8.684.49.534 1.627 1.346 2.526 1.802 2.369 1.204 5.857 1.367 7.924.371 3.106-1.496 4.786-4.247 3.819-6.251-.51-1.057-.7-1.111-4.682-1.325-4.372-.235-6.413-.954-9.748-3.432Zm18.901-10.888c-.495-.671-.886-.722-3.221-.419-3.527.456-7.38.516-8.758.136-.909-.251-1.165-.153-1.379.532-.145.463-.925 1.715-1.734 2.783-1.684 2.223-1.602 2.576 1.026 4.422 3.007 2.111 8.432 1.743 12.337-.836 2.095-1.384 3.009-4.882 1.729-6.618Zm-61.579 5.623c-.299-.77-2.907-1.507-4.183-1.182-1.169.298-1.225.813-.151 1.383.443.235 1.653.424 2.689.42 1.492-.006 1.834-.134 1.645-.621Zm-72.173-30.687c-1.055.004-1.011.383.943 8.097 2.462 9.716 3.698 13.124 5.361 14.775 1.651 1.639 5.279 2.986 11.503 4.274 3.243.671 12.065 1.082 15.361.716 5.981-.666 10.581-1.846 16.835-4.318 5.241-2.073 6.203-2.849 6.161-4.972-.039-1.96-1.656-6.309-2.551-6.862-.469-.289-2.37-.242-6.088.151-10.779 1.14-21.909-.368-31.792-4.307-3.026-1.206-11.052-5.182-13.293-6.585-.856-.535-1.954-.971-2.44-.969Zm129.283 12.031c-2.104-1.512-4.632-2.195-7.492-2.022-2.246.135-2.281.157-2.218 1.383.102 1.967 1.855 6.103 3.118 7.357.948.941 1.508 1.14 3.157 1.118 2.087-.027 4.679-.78 5.742-1.668 1.442-1.207.283-4.306-2.307-6.168Zm-59.248-67.946c-.007-1.853-23.723-3.611-32.62-2.419-7.453 1-20.123 4.574-26.558 7.494-5.918 2.686-14.063 7.248-15.513 8.69l-1.415 1.407.5 3.948c.276 2.17.506 5.333.513 7.026.013 3.43 1.399 13.034 2.36 16.354.859 2.965 2.827 5.377 6.255 7.67 7.499 5.017 17.841 8.936 28.695 10.873 4.422.789 13.765 1.067 15.317.457 1.17-.461 1.122-.501-3.028-2.488-3.54-1.695-5.291-2.249-8.494-4.234-3.203-1.985-6.826-3.692-7.215-4.437l-.707-1.355 2.01-2.123c1.503-1.587 2.214-2.061 2.815-1.873.442.139 3.663 2.397 7.267 4.78 3.603 2.382 3.866 3.138 8.182 5.189 7.334 3.485 16.394 3.636 23.602.394 6.638-2.987 10.535-12.07 8.363-19.492-.818-2.794-2.032-4.965-2.977-5.323-.351-.134-1.304.038-2.118.382-3.44 1.452-10.169.234-13.275-2.405-2.256-1.917-4.019-5.361-5.433-10.615-.964-3.581-1.426-4.612-2.599-5.79-1.301-1.305-1.472-1.369-1.943-.72-.284.392-.722 2.588-.974 4.881-.684 6.224-2.366 10.305-5.581 13.546-3.989 4.02-8.89 5.305-14.563 3.817-7.152-1.876-10.59-5.488-13.603-14.287-1.331-3.887-1.795-4.617-2.931-4.612-.842.003-9.669 4.21-12.878 6.138L857 86.516l-1.12-1.027c-1.6-1.465-2.501-3.673-1.783-4.37.302-.293 2.881-1.506 5.732-2.696 2.852-1.19 8.637-3.846 12.856-5.9 9.924-4.832 11.295-5.14 21.791-4.916 6.966.149 8.163.278 10.183 1.098 3.498 1.42 6.634 1.3 9.862-.377 2.79-1.451 6.567-2.597 8.596-2.608 1.655-.01 4.374-.785 4.374-1.247Zm22.775-29.178c-3.394.013-5.325.83-12.894 5.451-7.081 4.324-10.43 5.894-15.238 7.143-6.379 1.657-12.875 2.235-25.853 2.3-13.876.07-16.292-.167-32.245-3.168-11.687-2.198-14.653-2.454-20.947-1.807-6.202.638-10.999 1.85-15.29 3.864-4.416 2.073-8.738 6.28-10.747 10.46-2.849 5.927-3.661 12.52-2.137 17.352 2.429 7.704 10.555 14.165 21.141 16.808 5.146 1.285 9.314 1.673 10.021.933.602-.63.667-5.586.106-7.964-.362-1.534-.799-2.293-2.593-4.514-.668-.826-.82-1.399-.606-2.282.911-3.768 15.105-13.546 25.024-17.237 15.384-5.727 32.017-7.386 49.195-4.91 5.389.778 9.299 1.092 13.59 1.092 5.499 0 6.283-.095 9-1.1 3.842-1.422 8.209-4.363 10.944-7.374 4.494-4.945 5.963-11.17 3.268-13.846-1.079-1.071-1.508-1.21-3.739-1.201ZM938.095 70.83c-.982-1.307-2.317-1.907-3.124-1.404-.462.289-.384.93.439 3.596.551 1.784 1.319 3.884 1.706 4.668l.703 1.424.553-1.014c.894-1.639.731-5.928-.277-7.27Zm-49-53.754c-7.379-.016-9.273.446-15.949 3.893-7.611 3.93-14.526 10.918-15.966 16.137-.686 2.485-.381 2.764 3.668 3.368 1.762.262 6.477 1.03 10.478 1.706 4.001.675 9.612 1.422 12.469 1.66 9.531.792 29.515.107 33.987-1.166 3.525-1.004 3.63-1.627 1.072-6.318-4.248-7.788-8.761-13.34-12.802-15.751-1.241-.74-4.116-1.834-6.388-2.43-3.572-.938-5-1.086-10.569-1.099Z" clip-rule="evenodd"/><path fill="#000" fill-rule="evenodd" d="M1009.25 33.116c4.81-1.293 9.35-1.747 10.47-1.045 2.12 1.33 1.88 6.231-.69 14.213-1.09 3.388-2.31 6.248-3.33 7.848-3.93 6.15-9.72 10.556-16.822 12.8-3.261 1.031-3.678 1.314-4.809 3.267-.681 1.176-1.421 2.703-1.645 3.392-.383 1.18-.153 1.127 3.977-.93 3.689-1.84 5.029-2.219 8.499-2.405 5-.269 8.82.197 13.12 1.595 5.58 1.816 7.68 3.749 6.85 6.312-.52 1.617-10.08 11.02-13.04 12.831-3.93 2.405-9.02 2.657-17.996.891-2.618-.515-5.085-.814-5.481-.666-.396.148-.929.915-1.185 1.703-.597 1.84-4.403 30.322-4.119 30.828.118.208.387.154.598-.12.211-.274 1.897-2.068 3.744-3.986 6.825-7.087 11.167-9.574 18.709-10.716 7.87-1.191 13.1 1.097 11.03 4.822-1.65 2.971-6.27 7.15-10.01 9.063-4.51 2.31-7.882 2.893-13.754 2.379-4.402-.385-4.509-.364-6.489 1.277-1.108.918-2.137 2.048-2.287 2.512l-.104.293-7.575-4.002c.371-3.246.698-9.708.435-10.208-.222-.421-2.186-1.944-4.364-3.385-2.178-1.441-5.179-3.783-6.667-5.204-3.237-3.09-9.259-12.41-9.142-14.147.24-3.55 7.542-3.311 13.904.453 2.914 1.725 4.525 3.315 7.2 7.104.974 1.38 1.099 1.445 1.338.688.609-1.933 1.223-15.556.817-18.127-.451-2.861-1.136-3.659-6.245-7.272-8.866-6.269-11.212-10.965-11.836-23.681-.342-6.964.032-8.03 2.897-8.27 1.423-.12 2.865.229 5.922 1.434 9.455 3.73 15.984 11.63 17.074 20.662.344 2.849.59 3.576 1.009 2.98 1.222-1.742 1.719-4.14 1.614-7.789-.136-4.732 1.395-11.178 3.592-15.126 3.289-5.909 9.111-10.738 14.791-12.268Zm6.1 43.436c-3.68-1.195-9.17-1.277-13.28-.198-2.55.67-8.773 3.916-9.031 4.71-.166.515.658.719 1.165.289.62-.527 6.816-1.643 9.046-1.628 2.22.014 4.08.995 3.76 1.982-.12.373-2.71 1.501-5.75 2.507-3.042 1.005-5.783 1.94-6.092 2.075-.811.356 2.196 1.163 5.102 1.369 5.77.409 9.4-1.124 14.55-6.137 1.91-1.858 3.51-3.507 3.57-3.666.05-.159-1.32-.745-3.04-1.303Zm-42.546-25.75c-1.978-1.28-5.063-2.597-5.187-2.215-.146.451.256 8.546.498 10.01.688 4.166 2.952 7.676 7.04 10.917 1.283 1.016 2.578 1.928 2.879 2.025.3.097-.771-2.417-2.38-5.587-2.479-4.884-2.809-5.861-2.165-6.399.419-.35 1.13-.59 1.581-.537 1.1.132 3.528 2.663 5.97 6.222 1.103 1.607 2.078 2.696 2.167 2.42.42-1.295-.792-5.847-2.268-8.516-1.731-3.13-4.559-6.03-8.135-8.34Zm42.206-13.86c-.17-.054-1.87.505-3.79 1.242-7 2.689-11.854 7.755-14.121 14.747-.732 2.256-1.174 4.154-.982 4.216.192.06 1.921-1.932 3.841-4.43 4.602-5.987 7.412-7.746 7.912-4.957.29 1.622-.15 2.507-4.04 8.054-2 2.853-3.58 5.205-3.51 5.228.47.15 5.69-3.379 7.11-4.805 3.45-3.465 4.94-6.193 6.54-12.011 1.42-5.144 1.69-7.073 1.04-7.285Z" clip-rule="evenodd"/><path fill="#000" d="m977.629 168.761-.587 1.67c-2.876-.511-4.277 9.249-4.359 9.222-.082-.026-.246.252-.365.618-.526 1.622.217 3.256 2.561 5.631 3.5 3.546 7.658 11.32 8.289 15.497.269 1.784.348 3.681.174 4.214-.469 1.447-2.26 2.591-3.45 2.205-1.32-.428-2.004-1.937-2.413-5.322-.466-3.853-1.757-6.854-3.942-9.159l-1.919-2.023-.225 1.647c-.124.905-.412 2.953-.641 4.55-1.162 8.13-5.147 14.789-8.248 13.783-.597-.193-1.146-.6-1.22-.903-.074-.303.824-3.715 1.996-7.582 2.75-9.075 2.701-12.162-.206-13.105-1.724-.559-5.653 1.28-9.921 4.644-2.738 2.157-3.363 2.442-4.534 2.062-1.132-.367-1.348-.704-1.302-2.034.129-3.752 8.351-9.875 13.957-10.394 2.471-.23 2.89-.426 3.104-1.451.241-1.149.113-1.24-4.106-2.949-2.393-.969-4.275-1.948-5.533-2.876l7.726-2.103c2.971 1.293 3.285 1.347 3.244.567-.289-5.462.324-9.09 2.022-11.638l9.898 5.229Z"/></svg>