<svg width="3191" height="368" viewBox="0 0 3191 368" fill="none" xmlns="http://www.w3.org/2000/svg">
<path d="M2797.74 270.344C2797.91 269.84 2797.99 269.42 2797.99 269.084C2798.16 268.58 2798.33 268.161 2798.5 267.825L2770.76 267.696C2771.1 267.193 2771.44 266.774 2771.77 266.44C2772.11 265.937 2772.45 265.518 2772.79 265.183L2802.05 265.32C2803.4 264.317 2804.83 263.819 2806.34 263.826L2856.78 264.061C2858.63 264.07 2860.06 264.581 2861.07 265.595L2831.81 265.458C2832.14 265.796 2832.48 266.218 2832.81 266.724C2833.31 267.063 2833.65 267.485 2833.81 267.99L2861.31 268.118C2861.64 269.128 2861.8 269.97 2861.8 270.643L2875.92 270.708C2876.09 270.709 2876.17 270.794 2876.17 270.962L2876.16 273.232L2842.11 273.073L2842.09 278.117L2856.21 278.183L2856.2 281.966L2854.68 281.959L2854.66 287.004L2845.58 286.962L2845.56 292.006L2865.99 292.101L2865.98 293.362L2867.49 293.369L2867.47 298.414L2868.48 298.418L2868.46 303.463L2866.69 303.454L2866.67 308.499L2865.41 308.493L2865.38 314.798L2869.66 314.818L2869.64 319.863L2864.85 319.84L2864.83 324.885L2865.83 324.89L2865.83 326.151L2883.74 326.234L2883.71 331.278L2893.04 331.322L2893.03 333.844L2854.19 333.663L2854.18 336.185L2867.04 336.245L2867.02 341.29L2856.43 341.24L2856.4 346.285L2865.48 346.327L2865.47 348.849L2867.24 348.857L2867.22 352.641L2901.02 352.798L2901 355.32L2924.46 355.43L2924.44 360.474L2860.37 360.176L2860.4 355.131L2836.94 355.022L2836.95 352.5L2803.15 352.342L2803.17 348.559L2801.41 348.551L2801.42 346.029L2792.34 345.986L2792.36 340.942L2802.95 340.991L2802.98 335.947L2790.12 335.887L2790.13 333.365L2828.97 333.546L2828.98 331.023L2819.65 330.98L2819.67 325.936L2801.76 325.852L2801.77 324.591L2800.76 324.586L2800.78 319.542L2805.58 319.564L2805.6 314.52L2801.31 314.5L2801.34 308.194L2802.6 308.2L2802.63 303.156L2804.39 303.164L2804.42 298.12L2803.41 298.115L2803.43 293.071L2801.92 293.064L2801.92 291.803L2781.49 291.707L2781.52 286.663L2790.6 286.705L2790.62 281.661L2792.13 281.668L2792.15 277.885L2778.03 277.819L2778.05 272.775L2812.1 272.933L2812.11 270.411L2797.74 270.344Z" fill="black"/>
<path d="M2833.09 154.309C2831.75 153.798 2830.15 153.538 2828.3 153.53H2876.4L2874.65 166.609L2874.63 170.392L2877.71 191.998L2856.63 191.748L2855.87 190.483L2857.39 190.49L2854.38 185.432L2860.19 185.459L2859.44 184.194L2847.58 184.139L2846.08 181.609L2853.39 181.644L2850.14 176.584L2840.81 176.54L2838.55 172.747L2844.61 172.775L2843.11 170.246L2820.66 170.141L2818.41 166.347L2813.61 166.325L2812.11 163.796L2829.01 163.874L2826.26 159.321C2826.26 159.153 2826.17 159.069 2826.01 159.068L2826.01 158.816L2842.91 158.895C2842.24 157.882 2841.57 157.039 2840.9 156.363L2836.36 156.342C2835.52 155.497 2834.43 154.819 2833.09 154.309Z" fill="black"/>
<path d="M2900.9 221.502L2907.21 221.532L2909.9 239.2L2909.15 237.935L2902.59 237.905L2900.09 234.11L2897.31 234.097L2895.06 230.303L2899.85 230.325L2896.85 225.267L2903.41 225.298L2900.9 221.502Z" fill="black"/>
<path d="M2912.5 246.368L2917.04 246.389L2917.01 251.434L2915.5 251.427L2912.5 246.368Z" fill="black"/>
<path d="M3003.18 321.45L3000.16 321.436L3000.93 318.917L3012.28 318.97L3013.02 321.496L3011 321.487L3012.25 325.276L3001.91 325.228L3003.18 321.45Z" fill="black"/>
<path d="M3007.2 326.009L3008.44 330.303L3005.92 330.291L3007.2 326.009Z" fill="black"/>
<path d="M2992.65 361.757L2993.17 360.498L3001.24 360.536L3002.77 355.499L2992.94 355.453L2993.7 352.934L2997.49 352.952L2999.02 347.914L2996.75 347.904L2998.03 344.126L3000.81 344.139L3002.34 339.102L3001.59 339.099L3001.85 337.839L2996.3 337.813L2997.07 335.294L3002.61 335.32L3003.64 331.541L3011.71 331.579L3012.96 335.368L3013.21 335.369L3013.95 337.895L3005.63 337.856L3006.13 339.12L3014.2 339.157L3015.69 344.209L3018.46 344.222L3019.45 348.01L3018.7 348.006L3020.19 353.057L3024.48 353.077L3025.22 355.603L3017.91 355.569L3019.4 360.621L3024.44 360.644L3024.69 361.906L3023.43 361.9L3023.67 362.658L2995.17 362.525L2995.43 361.77L2992.65 361.757Z" fill="black"/>
<path d="M2964.07 306.878L2967.1 306.892L2966.33 309.411L2954.98 309.358L2954.24 306.832L2956.26 306.842L2955.01 303.053L2965.35 303.101L2964.07 306.878Z" fill="black"/>
<path d="M2960.06 302.319L2958.82 298.026L2961.34 298.038L2960.06 302.319Z" fill="black"/>
<path d="M2974.6 266.571L2974.09 267.83L2966.02 267.792L2964.49 272.83L2974.32 272.876L2973.55 275.394L2969.77 275.377L2968.23 280.414L2970.5 280.425L2969.22 284.202L2966.45 284.189L2964.91 289.226L2965.67 289.23L2965.41 290.49L2970.96 290.516L2970.19 293.034L2964.64 293.008L2963.62 296.787L2955.55 296.749L2954.3 292.96L2954.05 292.959L2953.31 290.433L2961.63 290.472L2961.13 289.209L2953.06 289.171L2951.57 284.12L2948.79 284.107L2947.8 280.319L2948.56 280.322L2947.07 275.271L2942.78 275.251L2942.04 272.725L2949.35 272.759L2947.86 267.708L2942.82 267.684L2942.57 266.422L2943.83 266.428L2943.58 265.67L2972.08 265.803L2971.83 266.558L2974.6 266.571Z" fill="black"/>
<path d="M2792.63 60.3298L2792.11 61.5885L2784.04 61.5509L2782.51 66.5882L2792.34 66.634L2791.58 69.1527L2787.79 69.1351L2786.26 74.1724L2788.52 74.183L2787.25 77.9604L2784.47 77.9475L2782.94 82.9848L2783.69 82.9883L2783.43 84.2482L2788.98 84.2741L2791.83 90.5457L2773.57 90.5079L2772.32 86.7187L2772.07 86.7176L2771.33 84.1918L2779.65 84.2306L2779.15 82.9672L2771.08 82.9296L2769.59 77.8781L2766.82 77.8652L2765.83 74.0772L2766.58 74.0808L2765.09 69.0293L2760.8 69.0094L2760.06 66.4836L2767.37 66.5177L2765.88 61.4663L2760.84 61.4428L2760.59 60.1805L2761.85 60.1864L2761.61 59.4286L2790.11 59.5614L2789.85 60.3168L2792.63 60.3298Z" fill="black"/>
<path d="M3138.64 83.1974L3185.55 83.4159L3185.57 79.6326L3159.34 79.5104L3159.36 74.466L3164.41 74.4895L3164.43 69.4452L3170.99 69.4757L3170.99 68.2146L3174.78 68.2323L3174.78 67.2234C3174.79 65.7101 3174.37 64.3629 3173.54 63.182L3168.24 63.1573C3166.9 61.3014 3165.06 60.368 3162.71 60.3571H3128.1V113.312L3161.19 114.578C3163.88 114.591 3165.82 113.423 3167.01 111.074L3149.1 110.991C3149.61 109.984 3149.87 108.893 3149.87 107.715L3149.88 105.95L3155.18 105.975L3155.18 104.714L3182.68 104.842L3182.7 99.7972L3175.39 99.7631L3175.4 95.9799L3175.91 95.9822L3175.92 92.1989L3156.5 92.1085L3156.52 88.3252L3138.61 88.2417L3138.64 83.1974Z" fill="black"/>
<path d="M2756.39 70.5084L2756.38 71.7696H2822.91L2841.32 32.2085L2835.1 0.0899176C2833.59 0.082867 2832.16 0.580651 2830.81 1.58327L2815.42 1.51158C2815.08 1.8463 2814.74 2.26509 2814.41 2.76797C2814.07 3.10269 2813.81 3.52188 2813.64 4.02554L2816.42 4.03847C2816.08 5.04578 2815.9 5.88572 2815.9 6.5583L2811.36 6.53715L2811.35 7.79825L2813.12 7.80647L2813.11 9.06756L2821.94 9.10869L2821.92 12.892L2803.76 12.8074L2803.74 17.8518L2811.81 17.8894L2811.79 21.6726L2817.6 21.6997L2817.58 25.483L2820.1 25.4947L2820.09 26.7558L2800.67 34.5418L2740.16 35.1214L2745.45 35.146L2745.45 36.4071L2741.66 36.3895L2741.65 40.1728L2747.45 40.1998L2747.42 45.2442L2757.01 45.2888L2757 47.811L2734.04 47.7041L2734.02 52.7485L2721.16 52.6885L2721.14 56.4718L2749.14 56.6023L2749.11 61.6466L2756.18 61.6796L2756.16 64.2017L2756.42 64.2029L2756.4 66.7251L2755.4 66.7204L2755.38 70.5037L2756.39 70.5084Z" fill="black"/>
<path d="M2978.53 122.721L2983.83 122.745H3018.06L3012.98 91.1008C3011.46 91.0938 3010.03 91.5916 3008.68 92.5942L2993.3 92.5225C2992.96 92.8572 2992.62 93.276 2992.28 93.7789C2991.95 94.1136 2991.69 94.5328 2991.52 95.0364L2994.3 95.0494C2993.95 96.0567 2993.78 96.8966 2993.78 97.5692L2989.24 97.5481L2989.23 98.8092L2991 98.8174L2990.99 100.078L2999.82 100.12L2999.8 103.903L2981.64 103.818L2981.62 108.863L2989.69 108.9L2989.67 112.684L2995.47 112.711L2995.46 116.494L2997.98 116.506L2997.97 117.767L2978.55 117.676L2978.53 122.721Z" fill="black"/>
<path d="M3055.39 161.89C3052.92 163.415 3051.51 164.279 3051.49 164.29C3051.25 164.037 3050.5 163.2 3049.31 161.862L3055.39 161.89Z" fill="black"/>
<path d="M3062.71 138.972L3062.69 142.756L3067.74 142.779L3067.73 144.04L3059.11 152.828L3059.1 155.098C3059.1 155.77 3059.18 156.275 3059.35 156.612L3050.52 156.571L3051.02 157.834L3046.02 158.12C3042.03 153.58 3036.14 146.841 3029.15 138.816L3062.71 138.972Z" fill="black"/>
<path d="M2969.73 8.63636C3016.69 20.092 3122.3 45.85 3173.83 58.3504L3173.97 58.7627L3175.56 58.7697C3178.14 59.3972 3180.59 59.988 3182.86 60.5399L3183.54 62.5907L3178.24 62.5659L3179.98 67.6185L3180.74 67.622L3182.48 72.6746L3189.54 72.7073L3190.04 73.971L3166.08 73.859L3167.82 78.9116L3168.58 78.9156L3168.83 80.1779L3177.65 80.219L3178.41 82.2232C3163.68 92.3774 3144.88 105.273 3127.96 116.261C3117.77 122.875 3105.91 130.396 3094.61 137.492L3038 137.596L3028.05 137.549C3015.63 123.305 2999.96 105.288 2985.26 88.369L3017.5 88.3101L3028.6 88.3616L3028.6 87.1003L2992.79 86.9338L2992.8 83.1504L2987.76 83.1266L2987.77 81.8658L2996.38 73.078L2996.39 70.8081C2996.4 70.1356 2996.31 69.6307 2996.15 69.2936L3004.98 69.3347L3004.48 68.0715L3024.91 66.9053C3023.58 65.0495 3021.73 64.1163 3019.38 64.1052L2963.96 63.8465C2963.66 63.5068 2963.37 63.1693 2963.08 62.8335L2969.19 62.8623L2969.21 57.8181L2958.68 57.7686C2957.93 56.9059 2957.2 56.0615 2956.48 55.2361L2965.69 55.2792L2965.7 54.0184L2958.13 53.9832L2958.15 50.1999L2965.47 50.2336L2965.48 47.7115L2956.14 47.6684L2956.16 45.1458L2978.1 45.2484L2978.12 41.465L2984.42 41.4943L2984.43 38.9722L2949.88 38.8111L2949.9 35.0277H2939.38C2939.48 34.202 2939.73 32.3084 2940.16 29.938L2952.19 29.994L2952.17 35.0381L3016.23 35.337L3016.26 30.2923L2992.8 30.1833L2992.81 27.6612L2959.01 27.5036L2959.03 23.7203L2957.27 23.7118L2957.28 21.1898L2948.2 21.1476L2948.22 16.103L2958.81 16.1525L2958.84 11.1079L2945.97 11.0484L2945.99 8.52585L2969.73 8.63636Z" fill="black"/>
<path d="M2844.12 11.657C2844.74 12.4237 2864.23 34.9316 2886.86 61.0603L2878.6 61.0221L2879.85 64.8115L2890.15 64.859C2890.88 65.7006 2891.61 66.545 2892.34 67.3915L2883.62 67.3514L2885.36 72.404L2893.68 72.4426L2894.93 76.2319L2889.63 76.2072L2891.37 81.2597L2892.13 81.2632L2893.87 86.3158L2900.93 86.3485L2901.43 87.6123L2877.47 87.5003L2879.21 92.5528L2879.97 92.5568L2880.22 93.8191L2889.04 93.8602L2890.29 97.1445C2890.29 97.6489 2890.45 98.2386 2890.79 98.9128L2888.26 98.9009L2889.77 101.43L2890.77 101.435C2891.61 102.616 2892.78 103.546 2894.29 104.226C2895.8 105.073 2897.65 105.502 2899.84 105.513H2925.37C2943.41 126.337 2957.3 142.364 2957.32 142.383C2962.59 148.397 2957.24 142.571 2973.62 161.743C2976 164.534 2978.95 167.838 2982.25 171.458L2966.16 171.383L2966.14 176.428L2986.91 176.524C2993.24 183.361 3000.37 190.907 3007.16 198.057L2997.56 198.013L2997.55 200.535L3006.88 200.578L3006.86 205.623L3014.38 205.658C3016.69 208.09 3018.9 210.417 3020.95 212.589L3020.93 217.039L3025.16 217.058C3025.18 217.079 3025.2 217.1 3025.22 217.121L3025.19 223.364L3023.93 223.358L3023.91 228.403L3022.14 228.395L3022.12 233.439L3023.13 233.444L3023.1 238.488L3024.62 238.495L3024.61 239.756L3044.73 239.85C3044.83 239.974 3044.93 240.098 3045.04 240.223L3045.02 244.895L3035.94 244.853L3035.91 249.898L3034.4 249.891L3034.38 253.674L3048.51 253.74L3048.48 258.784L3014.43 258.625L3014.42 260.896C3014.42 261.064 3014.5 261.148 3014.67 261.149L3028.8 261.215C3028.79 261.887 3028.96 262.729 3029.29 263.739L3056.78 263.867C3056.95 264.373 3057.28 264.794 3057.78 265.133C3058.12 265.639 3058.45 266.061 3058.79 266.399L3029.53 266.263C3030.53 267.276 3031.96 267.787 3033.81 267.796H3067.84C3071.46 272.188 3074.7 276.121 3077.25 279.215L3069.34 279.179L3069.33 280.44L3078.29 280.482C3081.22 284.044 3082.99 286.208 3083.01 286.229C3083.37 286.448 3084.44 287.589 3085.99 289.345L3081.9 289.326L3081.88 294.371L3070.03 294.316L3070.01 298.099L3083.88 298.163L3083.86 301.947L3081.34 301.935L3081.33 303.196L3078.31 303.182L3078.28 308.226L3083.83 308.252L3083.81 313.296L3086.08 313.307L3086.06 317.09L3075.72 317.042L3075.71 319.564L3084.54 319.605L3084.51 324.65L3073.41 324.598C3073.41 325.271 3073.24 325.942 3072.9 326.614C3072.56 327.285 3072.22 327.871 3071.88 328.374L3079.95 328.412C3079.28 329.081 3078.77 329.499 3078.44 329.666L3070.62 329.63C3069.77 330.298 3068.59 330.629 3067.08 330.622L3097.4 330.763L3089.21 334.165C3077.03 338.381 3065.59 344.408 3053.32 348.657C3049.37 350.025 3038 354.49 3027.75 357.977L3008.62 357.888L3008.63 355.366L3003.95 355.344C2999.48 350.502 2993.22 343.665 2986.62 336.346L3000.65 336.412L3000.66 333.89L2991.33 333.847L2991.35 328.802L2979.82 328.748C2977.93 326.623 2976.06 324.501 2974.23 322.416L2977.26 322.431L2977.28 317.387L2972.99 317.366L2973.02 311.061L2974.28 311.067L2974.31 306.023L2976.07 306.03L2976.09 300.986L2975.09 300.981L2975.11 295.937L2973.6 295.93L2973.6 294.669L2953.17 294.574L2953.2 289.53L2962.28 289.572L2962.3 284.528L2963.81 284.535L2963.83 280.751L2949.71 280.685L2949.73 275.641L2983.78 275.8L2983.79 273.529C2983.79 273.362 2983.71 273.277 2983.54 273.276L2969.41 273.21C2969.42 272.538 2969.25 271.696 2968.92 270.686L2941.43 270.558C2941.26 270.053 2940.93 269.631 2940.43 269.292C2940.09 268.786 2939.76 268.364 2939.42 268.026L2968.68 268.163C2967.68 267.149 2966.25 266.638 2964.4 266.629H2929.91C2927.21 263.118 2924.48 259.623 2921.71 256.162C2913.51 245.912 2906.01 235.107 2897.31 225.255C2896.18 224.176 2885.97 211.888 2871.38 194.178L2877.27 194.206L2877.29 189.161L2867.21 189.114C2853.86 172.883 2837.53 152.959 2821.31 133.145L2821.31 132.15L2820.49 132.146C2820.43 132.07 2820.37 131.995 2820.31 131.919L2820.33 127.101L2818.82 127.094L2818.82 125.833L2815.31 125.817C2812.7 122.619 2810.09 119.436 2807.52 116.285L2807.52 115.692L2809.03 115.699L2809.05 111.915L2803.92 111.891C2802.53 110.191 2801.15 108.502 2799.78 106.827L2829 106.964L2829.01 104.693C2829.01 104.525 2828.93 104.441 2828.76 104.44L2814.63 104.374C2814.64 103.702 2814.47 102.86 2814.14 101.85L2795.64 101.763C2794.95 100.915 2794.26 100.071 2793.57 99.2315L2813.9 99.3266C2812.9 98.313 2811.47 97.8019 2809.62 97.7932H2792.4C2767.91 67.8374 2748.83 44.4452 2748.82 44.4282L2776.99 30.0991C2776.99 30.0991 2790.42 24.6217 2800.42 18.8867C2804.25 16.685 2818.67 9.81449 2818.7 9.79804L2835.85 1.49634C2835.88 1.52596 2842.62 9.80801 2844.12 11.657Z" fill="black"/>
<path d="M2823.99 242.97C2824.04 243.021 2840.64 260.165 2841.82 261.53C2843.54 263.525 2853.37 273.678 2864.65 285.292L2861.77 285.278L2861.76 286.539L2853.19 286.5L2853.17 290.283L2869.57 290.359C2872.45 293.319 2875.35 296.309 2878.19 299.227L2844.55 299.07L2844.55 300.332L2849.59 300.355L2849.57 304.138L2883.12 304.294C2883.53 304.72 2883.94 305.142 2884.35 305.561L2874.29 305.515L2874.26 310.559L2889.26 310.629C2890.18 311.569 2891.06 312.478 2891.91 313.352L2891.9 314.424L2892.95 314.429C2893.37 314.861 2893.77 315.284 2894.17 315.696L2892.65 315.689L2892.64 316.95L2891.89 316.947L2891.86 321.991L2892.37 321.994L2892.35 325.777L2891.34 325.772L2891.34 327.033L2890.08 327.027L2890.07 327.532C2890.24 327.701 2890.32 327.953 2890.32 328.29L2893.1 328.302C2893.59 329.986 2894.6 331.252 2896.11 332.1L2893.58 332.088C2894.42 332.765 2895.6 333.106 2897.11 333.113L2911.07 333.178C2913.92 335.977 2916.03 337.943 2916.03 337.943C2916.01 337.977 2908.98 346.336 2904.68 351.074C2900.38 355.822 2896.85 360.011 2891.86 364.995C2891.86 364.995 2853.87 365.563 2829.49 366.477C2821.73 366.768 2809.67 366.966 2796.83 367.101L2796.83 366.695L2797.59 366.699L2797.6 365.437L2799.36 365.446L2799.37 364.185L2796.85 364.173L2796.86 360.39L2779.21 360.307L2779.23 355.263L2790.33 355.315L2790.33 354.054L2754.52 353.887L2754.54 350.103L2750.33 350.083C2750.62 349.663 2750.91 349.244 2751.2 348.826L2818.35 349.14L2818.37 345.356L2790.38 345.226L2790.39 341.443L2817.63 341.57L2817.64 340.308L2758.11 340.031L2758.12 338.807C2758.71 337.943 2759.3 337.092 2759.87 336.255L2766.71 336.288L2766.21 335.024L2799 335.177L2798.25 333.913L2786.64 333.859C2785.31 332.003 2783.46 331.069 2781.11 331.058L2763.44 330.975C2763.76 330.497 2764.08 330.027 2764.39 329.563C2765.6 327.737 2767.31 325.122 2769.34 322.003L2821.2 321.909L2832.3 321.96L2832.31 320.699L2796.49 320.533L2796.51 316.749L2791.47 316.725L2791.47 315.465L2800.09 306.677L2800.1 304.407C2800.1 303.734 2800.02 303.229 2799.85 302.892L2808.68 302.934L2808.18 301.67L2828.62 300.504C2827.28 298.648 2825.44 297.715 2823.08 297.704L2785.12 297.527C2791.54 287.555 2797.49 278.294 2800.15 274.268C2801.34 272.467 2802.61 270.652 2803.92 268.861L2819.94 268.936L2819.96 263.891L2807.72 263.834C2811.83 258.553 2815.77 253.891 2817.96 251.067C2819.33 249.306 2823.99 242.97 2823.99 242.97Z" fill="black"/>
<path d="M382.996 52.0615H497.729V163.283H602.485V52.0615H785.81V54.4375C786.736 53.5525 787.828 52.7605 789.087 52.0605H974.792L983.521 59.2109L1059.71 211.743L1139.07 59.2109L1147.01 52.0605H1357.31C1361.02 52.5902 1363.66 54.1791 1365.25 56.8271C1366.84 58.9456 1368.16 61.5937 1369.22 64.7715V313.971C1371.45 308.847 1374.27 302.312 1377.67 294.365C1386.14 275.828 1396.19 253.584 1407.83 227.632C1419.47 201.151 1432.43 172.55 1446.72 141.832C1461.53 110.584 1476.08 80.6603 1490.37 52.0605H2272.1V278.477H2378.45L2379.37 52.0605H2727.51L2771.33 111.644H2576.19V167.255H2776.18V230.81H2576.19V278.477H2764.12L2720.15 338.06H2076.87V261.793H1832.5C1827.74 261.793 1824.83 262.323 1823.77 263.382C1822.71 264.441 1822.18 267.089 1822.18 271.326V338.06H1698.38V290.393H1589.57L1563.38 338.06H1185.1V199.826L1106.53 338.06H977.173L901.779 199.826V338.06L602.485 338.061V234.783H497.729V338.061H377.894L367.047 338.06H8.33496C5.68961 338.06 3.57257 334.352 1.98535 326.938C0.927203 318.993 0.398438 311.843 0.398438 305.487C0.398443 293.306 2.51461 284.302 6.74707 278.477H136.899C141.661 278.477 144.571 277.947 145.629 276.888C146.687 275.299 147.217 273.445 147.217 271.326V267.354C139.281 258.351 132.138 251.201 125.789 245.904C119.44 240.078 111.769 233.193 102.774 225.249C94.3092 217.305 83.1983 206.447 69.4424 192.677C55.6865 178.906 37.1689 159.575 13.8896 134.683C8.07005 128.327 4.63152 123.561 3.57324 120.383C2.51509 116.675 1.45659 112.703 0.398438 108.466V86.2217C0.398438 79.8661 2.25058 73.7751 5.9541 67.9492C10.1861 62.1242 16.7783 56.9884 17.8574 56.0332C18.9352 55.079 19.8306 54.652 21.5352 53.7988C23.2397 52.9457 25.5294 52.5902 28.1748 52.0605H382.919L382.996 52.0615ZM261.496 111.644C256.206 112.703 252.767 114.557 251.18 117.205C249.593 119.324 248.799 121.972 248.799 125.149V127.532L377.894 266.276V111.644H261.496ZM1654.64 153.749C1650.94 160.634 1646.97 168.314 1642.74 176.788L1630.83 200.621C1627.13 208.036 1625.01 212.802 1624.49 214.921L1623.69 217.305V218.894H1698.38V211.903L1668.13 143.421C1667.6 142.362 1666.55 141.568 1664.96 141.038L1661.79 139.449L1654.64 153.749ZM1822.18 195.06H1926.94C1928.53 195.059 1929.85 193.471 1930.91 190.293C1931.97 186.586 1932.76 182.614 1933.29 178.377C1933.82 173.61 1934.08 168.844 1934.08 164.077C1934.61 158.781 1934.88 154.543 1934.88 151.365C1934.87 141.303 1934.35 133.888 1933.29 129.121C1932.23 123.825 1930.38 119.324 1927.73 115.616H1822.18V195.06Z" fill="black"/>
</svg>
