<svg width="3190" height="656" viewBox="0 0 3190 656" fill="none" xmlns="http://www.w3.org/2000/svg">
<path d="M1240.24 617.244V512.244H1304.14C1311.24 512.244 1317.59 513.744 1323.19 516.744C1328.89 519.744 1333.39 523.844 1336.69 529.044C1340.09 534.244 1341.79 540.094 1341.79 546.594C1341.79 553.694 1339.94 560.044 1336.24 565.644C1332.64 571.244 1327.79 575.644 1321.69 578.844C1315.59 582.044 1308.74 583.644 1301.14 583.644H1265.74V617.244H1240.24ZM1265.29 561.294H1296.34C1299.74 561.294 1302.84 560.694 1305.64 559.494C1308.44 558.194 1310.69 556.494 1312.39 554.394C1314.09 552.194 1314.94 549.744 1314.94 547.044C1314.94 544.444 1314.09 542.244 1312.39 540.444C1310.69 538.644 1308.44 537.244 1305.64 536.244C1302.84 535.244 1299.74 534.744 1296.34 534.744H1265.29V561.294ZM1388.95 617.244V512.244H1414.45V594.744H1482.25V617.244H1388.95ZM1510.78 617.244L1562.98 512.244H1586.98L1638.88 617.244H1612.48L1581.43 554.994C1580.33 552.794 1579.33 550.744 1578.43 548.844C1577.53 546.844 1576.68 544.944 1575.88 543.144C1575.08 541.244 1574.33 539.394 1573.63 537.594C1573.03 535.694 1572.38 533.744 1571.68 531.744L1577.53 531.594C1576.83 533.694 1576.08 535.744 1575.28 537.744C1574.58 539.644 1573.78 541.544 1572.88 543.444C1572.08 545.344 1571.23 547.294 1570.33 549.294C1569.43 551.194 1568.48 553.144 1567.48 555.144L1536.58 617.244H1510.78ZM1534.93 598.644L1543.33 579.444H1606.18L1609.63 598.644H1534.93ZM1676.13 617.244V512.244H1700.43L1776.48 587.244L1773.03 586.494C1772.43 582.694 1771.93 579.044 1771.53 575.544C1771.23 572.044 1770.98 568.694 1770.78 565.494C1770.58 562.294 1770.43 559.194 1770.33 556.194C1770.23 553.194 1770.13 550.194 1770.03 547.194C1770.03 544.194 1770.03 541.194 1770.03 538.194V512.244H1794.78V617.244H1770.18L1691.73 539.844L1697.88 540.894C1698.18 542.394 1698.43 544.094 1698.63 545.994C1698.93 547.894 1699.18 550.044 1699.38 552.444C1699.68 554.844 1699.93 557.544 1700.13 560.544C1700.43 563.444 1700.63 566.694 1700.73 570.294C1700.83 573.894 1700.88 577.844 1700.88 582.144V617.244H1676.13ZM1878.3 617.244V534.744H1836.6V512.244H1946.25V534.744H1903.8V617.244H1878.3Z" fill="black"/>
<path d="M2797.45 270.772C2797.62 270.268 2797.7 269.848 2797.7 269.512C2797.87 269.008 2798.04 268.589 2798.21 268.253L2770.47 268.124C2770.81 267.621 2771.15 267.202 2771.49 266.867C2771.82 266.365 2772.16 265.946 2772.5 265.611L2801.76 265.747C2803.11 264.745 2804.54 264.247 2806.05 264.254L2856.5 264.489C2858.35 264.498 2859.77 265.009 2860.78 266.022L2831.52 265.886C2831.85 266.224 2832.19 266.646 2832.52 267.152C2833.03 267.49 2833.36 267.912 2833.53 268.418L2861.02 268.546C2861.35 269.556 2861.51 270.398 2861.51 271.07L2875.63 271.136C2875.8 271.137 2875.89 271.221 2875.89 271.389L2875.87 273.659L2841.82 273.501L2841.8 278.545L2855.93 278.611L2855.91 282.394L2854.39 282.387L2854.37 287.432L2845.29 287.389L2845.27 292.434L2865.7 292.529L2865.69 293.79L2867.21 293.797L2867.18 298.841L2868.19 298.846L2868.17 303.89L2866.4 303.882L2866.38 308.927L2865.12 308.921L2865.09 315.226L2869.38 315.246L2869.35 320.291L2864.56 320.268L2864.54 325.313L2865.54 325.317L2865.54 326.578L2883.45 326.662L2883.42 331.706L2892.76 331.75L2892.74 334.272L2853.9 334.091L2853.89 336.613L2866.75 336.673L2866.73 341.717L2856.14 341.668L2856.11 346.712L2865.19 346.755L2865.18 349.277L2866.95 349.285L2866.93 353.068L2900.73 353.226L2900.71 355.748L2924.17 355.857L2924.15 360.902L2860.08 360.603L2860.11 355.559L2836.65 355.45L2836.66 352.927L2802.87 352.77L2802.88 348.987L2801.12 348.978L2801.13 346.456L2792.05 346.414L2792.07 341.37L2802.67 341.419L2802.69 336.375L2789.83 336.315L2789.84 333.792L2828.68 333.973L2828.69 331.451L2819.36 331.408L2819.38 326.363L2801.48 326.28L2801.48 325.019L2800.47 325.014L2800.5 319.97L2805.29 319.992L2805.31 314.948L2801.02 314.928L2801.05 308.622L2802.31 308.628L2802.34 303.584L2804.1 303.592L2804.13 298.548L2803.12 298.543L2803.14 293.498L2801.63 293.491L2801.63 292.23L2781.2 292.135L2781.23 287.091L2790.31 287.133L2790.33 282.089L2791.84 282.096L2791.86 278.312L2777.74 278.247L2777.76 273.202L2811.81 273.361L2811.82 270.839L2797.45 270.772Z" fill="black"/>
<path d="M2832.8 154.736C2831.46 154.226 2829.86 153.966 2828.01 153.957H2876.11L2874.36 167.037L2874.34 170.82L2877.42 192.426L2856.34 192.175L2855.59 190.911L2857.1 190.918L2854.1 185.859L2859.9 185.886L2859.15 184.622L2847.29 184.566L2845.79 182.037L2853.1 182.071L2849.85 177.012L2840.52 176.968L2838.26 173.174L2844.32 173.203L2842.82 170.673L2820.37 170.569L2818.12 166.775L2813.32 166.752L2811.82 164.223L2828.72 164.302L2825.97 159.749C2825.97 159.581 2825.89 159.496 2825.72 159.496L2825.72 159.244L2842.62 159.322C2841.95 158.31 2841.28 157.466 2840.61 156.791L2836.07 156.769C2835.23 155.925 2834.14 155.247 2832.8 154.736Z" fill="black"/>
<path d="M2900.62 221.93L2906.92 221.96L2909.61 239.628L2908.86 238.363L2902.3 238.333L2899.8 234.538L2897.03 234.525L2894.77 230.731L2899.57 230.753L2896.56 225.695L2903.12 225.725L2900.62 221.93Z" fill="black"/>
<path d="M2912.21 246.796L2916.75 246.817L2916.72 251.862L2915.21 251.854L2912.21 246.796Z" fill="black"/>
<path d="M3002.89 321.878L2999.87 321.864L3000.64 319.345L3011.99 319.398L3012.73 321.924L3010.71 321.914L3011.96 325.704L3001.62 325.655L3002.89 321.878Z" fill="black"/>
<path d="M3006.91 326.437L3008.15 330.73L3005.63 330.719L3006.91 326.437Z" fill="black"/>
<path d="M2992.37 362.185L2992.88 360.926L3000.95 360.964L3002.48 355.926L2992.65 355.881L2993.42 353.362L2997.2 353.379L2998.74 348.342L2996.47 348.332L2997.74 344.554L3000.52 344.567L3002.06 339.53L3001.3 339.526L3001.56 338.266L2996.01 338.24L2996.78 335.722L3002.33 335.748L3003.35 331.969L3011.42 332.007L3012.67 335.796L3012.92 335.797L3013.66 338.323L3005.34 338.284L3005.84 339.547L3013.91 339.585L3015.4 344.636L3018.17 344.649L3019.17 348.437L3018.41 348.434L3019.9 353.485L3024.19 353.505L3024.93 356.031L3017.62 355.997L3019.11 361.048L3024.15 361.072L3024.4 362.334L3023.14 362.328L3023.39 363.086L2994.88 362.953L2995.14 362.198L2992.37 362.185Z" fill="black"/>
<path d="M2963.79 307.306L2966.81 307.32L2966.04 309.839L2954.69 309.786L2953.95 307.26L2955.97 307.269L2954.72 303.48L2965.06 303.528L2963.79 307.306Z" fill="black"/>
<path d="M2959.77 302.747L2958.53 298.454L2961.05 298.465L2959.77 302.747Z" fill="black"/>
<path d="M2974.31 266.999L2973.8 268.258L2965.73 268.22L2964.2 273.258L2974.03 273.303L2973.26 275.822L2969.48 275.804L2967.94 280.842L2970.21 280.852L2968.94 284.63L2966.16 284.617L2964.62 289.654L2965.38 289.658L2965.12 290.918L2970.67 290.943L2969.9 293.462L2964.35 293.436L2963.33 297.215L2955.26 297.177L2954.01 293.388L2953.76 293.387L2953.02 290.861L2961.34 290.9L2960.84 289.636L2952.77 289.599L2951.28 284.547L2948.51 284.534L2947.51 280.746L2948.27 280.75L2946.78 275.699L2942.49 275.679L2941.75 273.153L2949.06 273.187L2947.57 268.136L2942.53 268.112L2942.28 266.85L2943.54 266.856L2943.29 266.098L2971.8 266.231L2971.54 266.986L2974.31 266.999Z" fill="black"/>
<path d="M2792.34 60.7575L2791.83 62.0162L2783.75 61.9786L2782.22 67.016L2792.05 67.0618L2791.29 69.5805L2787.5 69.5628L2785.97 74.6001L2788.24 74.6107L2786.96 78.3881L2784.18 78.3752L2782.65 83.4125L2783.4 83.416L2783.14 84.676L2788.69 84.7018L2791.54 90.9734L2773.28 90.9356L2772.04 87.1465L2771.78 87.1453L2771.04 84.6196L2779.36 84.6583L2778.86 83.3949L2770.79 83.3573L2769.3 78.3059L2766.53 78.2929L2765.54 74.505L2766.29 74.5085L2764.8 69.4571L2760.52 69.4371L2759.77 66.9114L2767.08 66.9454L2765.59 61.894L2760.55 61.8705L2760.3 60.6082L2761.57 60.6141L2761.32 59.8563L2789.82 59.9891L2789.56 60.7446L2792.34 60.7575Z" fill="black"/>
<path d="M3138.35 83.6251L3185.26 83.8437L3185.28 80.0604L3159.05 79.9382L3159.07 74.8938L3164.12 74.9173L3164.14 69.8729L3170.7 69.9034L3170.7 68.6424L3174.49 68.66L3174.49 67.6511C3174.5 66.1378 3174.08 64.7907 3173.25 63.6097L3167.95 63.5851C3166.62 61.7292 3164.77 60.7958 3162.42 60.7848H3127.81V113.74L3160.9 115.006C3163.59 115.019 3165.53 113.851 3166.72 111.502L3148.81 111.419C3149.32 110.412 3149.58 109.32 3149.58 108.143L3149.59 106.378L3154.89 106.402L3154.9 105.141L3182.39 105.269L3182.41 100.225L3175.1 100.191L3175.11 96.4076L3175.62 96.41L3175.64 92.6267L3156.22 92.5362L3156.23 88.7529L3138.33 88.6695L3138.35 83.6251Z" fill="black"/>
<path d="M2756.1 70.9362L2756.09 72.1973H2822.63L2841.03 32.6363L2834.81 0.517652C2833.3 0.510601 2831.87 1.00839 2830.52 2.011L2815.13 1.93931C2814.79 2.27403 2814.45 2.69283 2814.12 3.1957C2813.78 3.53042 2813.52 3.94962 2813.35 4.45327L2816.13 4.46621C2815.79 5.47351 2815.61 6.31345 2815.61 6.98604L2811.07 6.96488L2811.07 8.22598L2812.83 8.23421L2812.83 9.49529L2821.65 9.53643L2821.64 13.3197L2803.48 13.2351L2803.45 18.2795L2811.52 18.3171L2811.51 22.1004L2817.31 22.1274L2817.29 25.9107L2819.81 25.9224L2819.81 27.1835L2800.38 34.9695L2739.87 35.5491L2745.16 35.5738L2745.16 36.8349L2741.38 36.8172L2741.36 40.6005L2747.16 40.6275L2747.14 45.6719L2756.72 45.7166L2756.71 48.2388L2733.76 48.1318L2733.73 53.1762L2720.87 53.1163L2720.85 56.8996L2748.85 57.03L2748.82 62.0744L2755.89 62.1073L2755.87 64.6295L2756.13 64.6306L2756.12 67.1528L2755.11 67.1481L2755.09 70.9315L2756.1 70.9362Z" fill="black"/>
<path d="M2978.24 123.148L2983.54 123.173H3017.77L3012.69 91.5286C3011.18 91.5215 3009.74 92.0193 3008.39 93.0219L2993.01 92.9502C2992.67 93.2849 2992.33 93.7037 2991.99 94.2066C2991.66 94.5413 2991.4 94.9605 2991.23 95.4642L2994.01 95.4771C2993.67 96.4844 2993.49 97.3244 2993.49 97.9969L2988.95 97.9758L2988.94 99.2369L2990.71 99.2451L2990.7 100.506L2999.53 100.547L2999.51 104.331L2981.35 104.246L2981.33 109.29L2989.4 109.328L2989.38 113.111L2995.19 113.138L2995.17 116.922L2997.69 116.933L2997.68 118.194L2978.26 118.104L2978.24 123.148Z" fill="black"/>
<path d="M3055.1 162.318C3052.63 163.842 3051.22 164.707 3051.2 164.718C3050.96 164.465 3050.21 163.628 3049.02 162.29L3055.1 162.318Z" fill="black"/>
<path d="M3062.42 139.4L3062.4 143.183L3067.45 143.207L3067.44 144.468L3058.83 153.256L3058.81 155.526C3058.81 156.198 3058.89 156.703 3059.06 157.04L3050.23 156.999L3050.73 158.262L3045.73 158.548C3041.74 154.008 3035.86 147.268 3028.86 139.244L3062.42 139.4Z" fill="black"/>
<path d="M2969.44 9.0641C3016.4 20.5197 3122.01 46.2777 3173.54 58.7781L3173.68 59.1905L3175.27 59.1974C3177.86 59.825 3180.3 60.4157 3182.58 60.9677L3183.25 63.0184L3177.95 62.9937L3179.69 68.0462L3180.45 68.0497L3182.19 73.1023L3189.25 73.135L3189.75 74.3988L3165.79 74.2868L3167.53 79.3393L3168.29 79.3433L3168.54 80.6056L3177.37 80.6467L3178.12 82.6509C3163.39 92.8051 3144.59 105.701 3127.67 116.688C3117.48 123.303 3105.62 130.823 3094.32 137.92L3037.71 138.024L3027.76 137.977C3015.34 123.733 2999.67 105.716 2984.97 88.7968L3017.21 88.7378L3028.31 88.7893L3028.31 87.528L2992.5 87.3615L2992.51 83.5782L2987.47 83.5544L2987.48 82.2936L2996.09 73.5057L2996.1 71.2359C2996.11 70.5633 2996.03 70.0584 2995.86 69.7213L3004.69 69.7625L3004.19 68.4992L3024.62 67.3331C3023.29 65.4773 3021.44 64.544 3019.09 64.533L2963.67 64.2743C2963.38 63.9345 2963.08 63.597 2962.79 63.2613L2968.9 63.29L2968.92 58.2459L2958.39 58.1963C2957.64 57.3337 2956.91 56.4892 2956.19 55.6638L2965.4 55.7069L2965.41 54.4461L2957.84 54.411L2957.86 50.6276L2965.18 50.6613L2965.19 48.1392L2955.86 48.0961L2955.87 45.5735L2977.81 45.6761L2977.83 41.8927L2984.13 41.922L2984.15 39.3999L2949.59 39.2388L2949.61 35.4555H2939.09C2939.19 34.6297 2939.44 32.7361 2939.87 30.3657L2951.9 30.4217L2951.88 35.4659L3015.94 35.7647L3015.97 30.7201L2992.51 30.611L2992.52 28.089L2958.72 27.9314L2958.74 24.148L2956.98 24.1396L2956.99 21.6175L2947.91 21.5754L2947.93 16.5307L2958.52 16.5803L2958.55 11.5356L2945.69 11.4762L2945.7 8.95358L2969.44 9.0641Z" fill="black"/>
<path d="M2843.83 12.0847C2844.45 12.8514 2863.94 35.3593 2886.57 61.488L2878.31 61.4499L2879.56 65.2392L2889.86 65.2868C2890.59 66.1283 2891.32 66.9727 2892.05 67.8193L2883.33 67.7791L2885.07 72.8317L2893.39 72.8704L2894.64 76.6597L2889.34 76.6349L2891.08 81.6875L2891.84 81.6909L2893.58 86.7435L2900.64 86.7762L2901.14 88.04L2877.18 87.928L2878.92 92.9806L2879.68 92.9845L2879.93 94.2468L2888.75 94.2879L2890 97.5723C2890 98.0767 2890.16 98.6664 2890.5 99.3405L2887.97 99.3286L2889.48 101.858L2890.49 101.863C2891.32 103.044 2892.49 103.974 2894 104.653C2895.51 105.501 2897.36 105.93 2899.55 105.94H2925.08C2943.12 126.764 2957.01 142.791 2957.03 142.811C2962.3 148.825 2956.95 142.999 2973.33 162.17C2975.71 164.961 2978.66 168.265 2981.96 171.886L2965.87 171.811L2965.85 176.855L2986.62 176.952C2992.95 183.789 3000.09 191.334 3006.87 198.485L2997.27 198.441L2997.26 200.963L3006.59 201.006L3006.57 206.051L3014.09 206.086C3016.4 208.517 3018.61 210.845 3020.66 213.016L3020.64 217.466L3024.87 217.486C3024.89 217.507 3024.91 217.528 3024.93 217.549L3024.9 223.792L3023.64 223.786L3023.62 228.83L3021.85 228.822L3021.83 233.867L3022.84 233.872L3022.81 238.916L3024.33 238.923L3024.32 240.184L3044.44 240.278C3044.54 240.402 3044.64 240.526 3044.75 240.65L3044.73 245.323L3035.65 245.281L3035.62 250.325L3034.11 250.318L3034.09 254.102L3048.22 254.168L3048.19 259.212L3014.14 259.053L3014.13 261.323C3014.13 261.491 3014.22 261.576 3014.38 261.577L3028.51 261.643C3028.5 262.315 3028.67 263.157 3029 264.167L3056.49 264.295C3056.66 264.8 3056.99 265.222 3057.5 265.561C3057.83 266.067 3058.16 266.489 3058.5 266.827L3029.24 266.69C3030.25 267.704 3031.67 268.215 3033.52 268.224H3067.55C3071.17 272.615 3074.41 276.549 3076.96 279.643L3069.05 279.606L3069.04 280.868L3078 280.909C3080.93 284.472 3082.7 286.636 3082.72 286.656C3083.08 286.876 3084.15 288.016 3085.7 289.773L3081.61 289.754L3081.59 294.798L3069.74 294.743L3069.72 298.526L3083.59 298.591L3083.57 302.375L3081.05 302.363L3081.04 303.624L3078.02 303.61L3077.99 308.654L3083.54 308.68L3083.52 313.724L3085.79 313.735L3085.77 317.518L3075.43 317.47L3075.42 319.992L3084.25 320.033L3084.22 325.078L3073.13 325.026C3073.12 325.698 3072.95 326.37 3072.61 327.041C3072.27 327.712 3071.93 328.299 3071.59 328.802L3079.67 328.84C3078.99 329.509 3078.48 329.927 3078.15 330.094L3070.33 330.057C3069.48 330.726 3068.31 331.057 3066.79 331.05L3097.11 331.191L3088.92 334.593C3076.74 338.808 3065.3 344.836 3053.03 349.084C3049.08 350.453 3037.71 354.918 3027.46 358.405L3008.33 358.316L3008.34 355.794L3003.66 355.772C2999.2 350.93 2992.93 344.093 2986.34 336.774L3000.36 336.84L3000.37 334.318L2991.04 334.274L2991.06 329.23L2979.53 329.176C2977.65 327.051 2975.77 324.929 2973.94 322.844L2976.97 322.858L2976.99 317.814L2972.7 317.794L2972.73 311.489L2973.99 311.494L2974.02 306.45L2975.78 306.458L2975.81 301.414L2974.8 301.409L2974.82 296.365L2973.31 296.358L2973.31 295.097L2952.88 295.002L2952.91 289.957L2961.99 290L2962.01 284.955L2963.52 284.962L2963.54 281.179L2949.42 281.113L2949.44 276.069L2983.49 276.227L2983.5 273.957C2983.5 273.789 2983.42 273.705 2983.25 273.704L2969.12 273.638C2969.13 272.965 2968.96 272.124 2968.63 271.113L2941.14 270.986C2940.97 270.48 2940.64 270.058 2940.14 269.72C2939.8 269.214 2939.47 268.792 2939.13 268.454L2968.39 268.59C2967.39 267.577 2965.96 267.066 2964.11 267.057H2929.63C2926.92 263.546 2924.19 260.051 2921.42 256.59C2913.22 246.34 2905.72 235.535 2897.02 225.683C2895.89 224.604 2885.68 212.316 2871.09 194.606L2876.98 194.634L2877.01 189.589L2866.92 189.542C2853.57 173.311 2837.24 153.386 2821.02 133.573L2821.03 132.578L2820.2 132.574C2820.14 132.498 2820.08 132.422 2820.02 132.347L2820.04 127.529L2818.53 127.522L2818.53 126.261L2815.02 126.244C2812.41 123.046 2809.8 119.864 2807.23 116.713L2807.23 116.119L2808.74 116.126L2808.76 112.343L2803.63 112.319C2802.24 110.618 2800.86 108.93 2799.49 107.255L2828.71 107.391L2828.72 105.121C2828.72 104.953 2828.64 104.869 2828.47 104.868L2814.34 104.802C2814.35 104.129 2814.18 103.288 2813.85 102.277L2795.35 102.191C2794.66 101.343 2793.97 100.498 2793.28 99.6592L2813.61 99.7544C2812.61 98.7408 2811.18 98.2296 2809.33 98.221H2792.11C2767.62 68.2651 2748.54 44.8729 2748.53 44.8559L2776.7 30.5268C2776.7 30.5268 2790.13 25.0494 2800.13 19.3145C2803.96 17.1127 2818.38 10.2422 2818.41 10.2258L2835.56 1.92407C2835.59 1.95369 2842.33 10.2357 2843.83 12.0847Z" fill="black"/>
<path d="M2823.7 243.397C2823.75 243.449 2840.35 260.593 2841.53 261.958C2843.25 263.953 2853.08 274.106 2864.36 285.72L2861.48 285.706L2861.47 286.967L2852.9 286.927L2852.88 290.711L2869.28 290.787C2872.16 293.746 2875.06 296.737 2877.9 299.655L2844.26 299.498L2844.26 300.759L2849.3 300.783L2849.29 304.566L2882.83 304.722C2883.24 305.148 2883.65 305.57 2884.06 305.989L2874 305.942L2873.97 310.987L2888.98 311.057C2889.89 311.996 2890.77 312.906 2891.62 313.78L2891.61 314.852L2892.66 314.857C2893.08 315.289 2893.49 315.712 2893.88 316.124L2892.36 316.117L2892.36 317.378L2891.6 317.375L2891.58 322.419L2892.08 322.421L2892.06 326.205L2891.05 326.2L2891.05 327.461L2889.79 327.455L2889.78 327.96C2889.95 328.129 2890.03 328.381 2890.03 328.717L2892.81 328.73C2893.3 330.414 2894.31 331.68 2895.82 332.527L2893.29 332.516C2894.13 333.192 2895.31 333.534 2896.82 333.541L2910.78 333.606C2913.64 336.404 2915.75 338.371 2915.75 338.371C2915.72 338.404 2908.69 346.763 2904.39 351.502C2900.09 356.25 2896.56 360.439 2891.57 365.423C2891.57 365.423 2853.58 365.99 2829.2 366.905C2821.44 367.196 2809.38 367.393 2796.54 367.528L2796.54 367.123L2797.3 367.126L2797.31 365.865L2799.07 365.874L2799.08 364.612L2796.56 364.6L2796.57 360.817L2778.92 360.735L2778.94 355.691L2790.04 355.743L2790.05 354.481L2754.23 354.314L2754.25 350.531L2750.04 350.511C2750.33 350.091 2750.62 349.672 2750.91 349.254L2818.06 349.567L2818.08 345.784L2790.09 345.654L2790.1 341.87L2817.34 341.997L2817.35 340.736L2757.83 340.459L2757.83 339.234C2758.42 338.371 2759.01 337.52 2759.58 336.683L2766.42 336.715L2765.92 335.452L2798.71 335.605L2797.96 334.34L2786.36 334.286C2785.02 332.43 2783.17 331.497 2780.82 331.486L2763.15 331.403C2763.47 330.925 2763.79 330.454 2764.1 329.991C2765.32 328.165 2767.03 325.55 2769.05 322.431L2820.91 322.337L2832.01 322.388L2832.02 321.127L2796.2 320.96L2796.22 317.177L2791.18 317.153L2791.18 315.892L2799.8 307.104L2799.81 304.835C2799.81 304.162 2799.73 303.657 2799.56 303.32L2808.39 303.361L2807.89 302.098L2828.33 300.932C2826.99 299.076 2825.15 298.143 2822.79 298.132L2784.83 297.955C2791.25 287.982 2797.2 278.722 2799.86 274.696C2801.05 272.895 2802.32 271.079 2803.63 269.289L2819.65 269.364L2819.67 264.319L2807.43 264.262C2811.54 258.981 2815.48 254.319 2817.67 251.494C2819.04 249.733 2823.7 243.397 2823.7 243.397Z" fill="black"/>
<path d="M382.707 52.4893H497.44V163.711H602.196V52.4893H785.521V54.8652C786.446 53.9803 787.539 53.1882 788.798 52.4883H974.503L983.232 59.6387L1059.42 212.171L1138.78 59.6387L1146.72 52.4883H1357.02C1360.73 53.0179 1363.37 54.6069 1364.96 57.2549C1366.55 59.3734 1367.87 62.0215 1368.93 65.1992V314.398C1371.16 309.275 1373.98 302.739 1377.38 294.793C1385.85 276.256 1395.9 254.011 1407.54 228.06C1419.18 201.578 1432.14 172.978 1446.43 142.26C1461.24 111.012 1475.79 81.088 1490.08 52.4883H2271.81V278.904H2378.16L2379.08 52.4883H2727.22L2771.04 112.071H2575.9V167.683H2775.89V231.237H2575.9V278.904H2763.83L2719.86 338.487H2076.58V262.221H1832.21C1827.45 262.221 1824.54 262.75 1823.48 263.81C1822.42 264.869 1821.89 267.517 1821.89 271.754V338.487H1698.09V290.82H1589.28L1563.09 338.487H1184.81V200.254L1106.24 338.487H976.884L901.49 200.254V338.487L602.196 338.488V235.211H497.44V338.488H377.604L366.758 338.487H8.0459C5.40055 338.487 3.28351 334.78 1.69629 327.365C0.638141 319.421 0.109375 312.271 0.109375 305.915C0.10938 293.734 2.22555 284.73 6.45801 278.904H136.61C141.372 278.904 144.281 278.374 145.34 277.315C146.398 275.727 146.928 273.872 146.928 271.754V267.782C138.992 258.779 131.849 251.628 125.5 246.332C119.151 240.506 111.48 233.621 102.485 225.677C94.0202 217.732 82.9093 206.875 69.1533 193.104C55.3974 179.334 36.8798 160.003 13.6006 135.11C7.78099 128.755 4.34245 123.988 3.28418 120.811C2.22603 117.103 1.16752 113.131 0.109375 108.894V86.6494C0.109375 80.2939 1.96152 74.2028 5.66504 68.377C9.89707 62.552 16.4892 57.4161 17.5684 56.4609C18.6462 55.5068 19.5415 55.0797 21.2461 54.2266C22.9507 53.3734 25.2404 53.0179 27.8857 52.4883H382.63L382.707 52.4893ZM261.207 112.071C255.916 113.131 252.478 114.985 250.891 117.633C249.303 119.751 248.51 122.399 248.51 125.577V127.96L377.604 266.704V112.071H261.207ZM1654.35 154.177C1650.65 161.062 1646.68 168.742 1642.45 177.216L1630.55 201.049C1626.84 208.464 1624.73 213.23 1624.2 215.349L1623.4 217.732V219.321H1698.09V212.331L1667.84 143.849C1667.32 142.79 1666.26 141.995 1664.67 141.466L1661.5 139.877L1654.35 154.177ZM1821.89 195.487H1926.65C1928.24 195.487 1929.56 193.898 1930.62 190.721C1931.68 187.013 1932.47 183.041 1933 178.805C1933.53 174.038 1933.79 169.271 1933.79 164.505C1934.32 159.209 1934.59 154.971 1934.59 151.793C1934.59 141.73 1934.06 134.315 1933 129.549C1931.94 124.253 1930.09 119.751 1927.44 116.044H1821.89V195.487Z" fill="black"/>
</svg>
