<svg xmlns="http://www.w3.org/2000/svg" width="652" height="60" fill="none"><path fill="#000" fill-rule="evenodd" d="M162.919.147V.64c.192-.184.419-.348.68-.494h38.514l1.81 1.483 15.801 31.634L236.183 1.63l1.645-1.483h43.616c.769.11 1.317.44 1.646.989.329.44.604.989.823 1.648v51.681a670.924 670.924 0 0 0 1.754-4.066c1.756-3.844 3.84-8.457 6.254-13.84a931.423 931.423 0 0 1 8.065-17.793A1004.71 1004.71 0 0 1 309.039.146h162.125v46.957h22.055l.192-46.957h98.086l12.014 12.028L613.058.146h38.184l-26.169 33.447 26.169 25.867h-24.853l-12.344-12.027-9.381 12.027H430.675V43.643h-50.681c-.987 0-1.591.11-1.81.33-.22.22-.329.769-.329 1.648v13.84h-25.676v-9.886h-22.567l-5.431 9.885h-78.452V30.792L229.434 59.46h-26.828l-15.635-28.668V59.46h-62.072V38.043h-21.725V59.46H1.677c-.548 0-.987-.77-1.317-2.307-.219-1.648-.329-3.13-.329-4.449 0-2.526.44-4.393 1.317-5.602H28.34c.988 0 1.591-.11 1.811-.33.22-.329.33-.713.33-1.153v-.823c-1.647-1.868-3.128-3.35-4.445-4.449a346.178 346.178 0 0 0-4.773-4.284c-1.755-1.647-4.06-3.899-6.913-6.755-2.852-2.856-6.693-6.865-11.52-12.027C1.621 15.963.91 14.975.69 14.316a77.078 77.078 0 0 1-.659-2.472V7.231c0-1.318.384-2.581 1.152-3.79.878-1.208 2.246-2.273 2.47-2.47.223-.199.408-.287.762-.464.353-.177.828-.25 1.377-.36h97.382v23.066h21.725V.147h38.02ZM78.321 44.573v-32.07H54.18c-1.097.22-1.81.605-2.14 1.154-.329.44-.493.989-.493 1.648v.494L78.32 44.573Zm267.585-25.479 6.273 14.203v1.45h-15.49v-.33l.165-.495c.11-.439.549-1.427 1.317-2.965l2.469-4.943c.877-1.758 1.7-3.35 2.468-4.778l1.482-2.966.658.33c.329.11.549.274.658.494Zm53.675 10.71h-21.726V13.326h21.89c.549.77.933 1.703 1.152 2.801.22.989.329 2.527.329 4.614 0 .659-.055 1.537-.164 2.636 0 .988-.055 1.977-.165 2.965-.11.88-.274 1.703-.494 2.472-.219.659-.493.988-.822.988Zm178.758-17.3h-44.11v11.533h41.476v13.18h-41.476v9.886h42.07l16.35-20.924-14.31-13.675Z" clip-rule="evenodd"/></svg>