<svg xmlns="http://www.w3.org/2000/svg" xml:space="preserve" width="336.858" height="292.834" viewBox="0 0 89.127 77.479"><path d="M69.762 152.319c-1.911-.464-2.856-.95-4.198-2.162-1.407-1.272-1.819-2.141-1.819-3.843 0-1.106.167-1.68.763-2.618.935-1.475 1.64-1.989 4.614-3.363 2.772-1.28 4.108-2.29 5.443-4.11 1.113-1.518 3.29-5.193 5.186-8.759 2.824-5.308 4.958-7.69 8.4-9.377 3.261-1.599 5.012-1.958 8.8-1.805 3.846.155 5.92.788 10.45 3.193 6.406 3.399 7.1 3.709 8.597 3.833 2.732.226 5.319-1.614 7.027-4.998 1.079-2.137 1.587-4.57 1.288-6.168-.271-1.454-.483-1.885-2.006-4.082-2.542-3.669-3.138-5.626-3.115-10.23.062-12.155 8.689-22.595 18.69-22.617 3.947-.01 7.037 1.242 9.713 3.933 4.425 4.448 6.065 11.325 4.928 20.67-.683 5.62-1.8 9.743-4.297 15.874-4.096 10.058-7.525 15.655-12.802 20.897-3.528 3.504-6.776 5.508-11.008 6.79-2.014.61-2.815.708-5.902.72-5.414.02-8.197-.933-13.695-4.69-1.64-1.121-3.9-2.522-5.025-3.114-1.872-.987-2.181-1.069-3.669-.974-1.279.082-1.834.264-2.61.855-1.071.817-2.643 3.119-4.26 6.239-1.19 2.295-4.332 5.637-6.838 7.27-4.08 2.66-8.637 3.61-12.655 2.636zm7.135-2.757c1.77-.513 5.105-2.253 5.105-2.664 0-.138-.268-.252-.596-.252-1.04 0-3.726-1.474-5-2.744-.678-.674-1.447-1.747-1.71-2.383l-.48-1.158-1.02.644c-.562.354-2.152 1.184-3.534 1.842-2.66 1.268-3.532 2.153-3.534 3.58-.003 1.584 2.318 3.21 5.185 3.634 1.866.276 3.375.14 5.584-.5zm8.6-6.04c.5-.554 1.426-1.953 2.057-3.109.632-1.155 1.38-2.435 1.663-2.844.283-.408.472-.768.42-.799-.052-.03-.656-.318-1.342-.638-2.35-1.097-4.495-3.516-5.662-6.387l-.584-1.437-.961 1.91c-.53 1.05-1.684 3.122-2.568 4.605-1.723 2.893-2.052 4.07-1.558 5.569.642 1.943 4.044 4.093 6.53 4.124.94.012 1.222-.128 2.004-.994zm35.398-2.03c0-.07-.537-.622-1.194-1.228-.726-.668-1.572-1.863-2.154-3.04-.84-1.701-.974-2.245-1.088-4.428-.132-2.529.181-4.626.907-6.06l.368-.727h-1.306c-.719 0-2.044-.23-2.944-.51l-1.638-.51-1.168 1.077c-1.376 1.268-2.82 4.047-3.45 6.64-.499 2.044-.263 3.778.73 5.386.66 1.067 3.63 2.584 6.118 3.125 1.56.339 6.82.551 6.82.275zm6.249-1.843c1.001-.501 2.41-1.33 3.129-1.841 1.418-1.01 5.704-5.137 5.704-5.494 0-.12-.645-.22-1.432-.22-4.008 0-10.198-3.773-12.022-7.327l-.5-.976-.734.778c-.403.428-1.015 1.386-1.359 2.13-2.23 4.81-.979 10.5 2.887 13.134 1.393.95 2.125.918 4.327-.184zm-22.495-5.384c.043-3.13 1.953-7.7 4.052-9.695.45-.427.817-.866.817-.976 0-.25-3.582-2.263-5.688-3.195-2.648-1.173-2.906-1.184-3.857-.171-3.408 3.627-3.573 10.856-.3 13.084 1.604 1.091 4.401 2.725 4.686 2.737.149.006.275-.774.29-1.784zm-12.244-.439c.7-.355 1.802-.726 2.447-.822.645-.097 1.172-.204 1.172-.238s-.186-.434-.413-.89c-1.563-3.133-.784-8.977 1.615-12.122.358-.47.65-.921.65-1.004 0-.252-2.986-.166-4.647.135-3.311.6-7.206 3.094-8.357 5.35-.752 1.475-.573 3.33.539 5.589.867 1.762 1.952 2.882 3.875 4.003 1.34.781 1.578.781 3.119 0zm45.758-4.64c1.325-1.042 5.55-8.522 6.412-11.353.167-.548.126-.608-.3-.433-3.32 1.363-6.78 1.783-10.034 1.218-2.035-.353-5.314-1.578-6.514-2.432-.427-.305-.819-.51-.87-.459-.05.053-.343.81-.649 1.683s-.977 2.268-1.49 3.1c-.905 1.465-.921 1.539-.523 2.31.685 1.324 3.544 4.19 4.995 5.005 3.176 1.785 7.583 2.454 8.973 1.36zm2.104-13.085c2.215-.395 4.49-1.332 5.433-2.24 1.26-1.212 2.768-5.413 3.812-10.618.511-2.548.609-3.875.614-8.323.005-4.775-.055-5.504-.617-7.47-1.61-5.63-5.532-9.177-10.52-9.518-2.63-.18-4.6.223-7.024 1.435-4.628 2.316-8.426 7.71-9.833 13.966-1.24 5.51-.724 8.962 1.916 12.83 1.218 1.785 2.2 3.688 2.665 5.162.431 1.371 1.153 2.146 2.762 2.965 1.866.949 3.2 1.4 5.31 1.798 2.397.45 3.022.452 5.482.013zm-10.065-9.41c-2.724-.573-5.867-2.633-5.867-3.846 0-.542.847-1.442 1.357-1.442.099 0 .687.423 1.305.94 1.693 1.413 2.744 1.783 5.143 1.81 2.37.025 3.647-.469 5.49-2.124 1.078-.967 1.294-1.031 2.068-.617.878.47.599 1.332-.902 2.786-2.195 2.126-5.618 3.119-8.594 2.493zm6.594-12.591c-1.496-1.902-.719-4.868 1.276-4.868 1.133 0 1.583.24 2.015 1.077.738 1.426.27 3.898-.815 4.315-.958.367-1.937.16-2.476-.524zm-10.669-.518c-1.357-.737-1.678-2.476-.741-4.012 1.284-2.107 3.976-1.082 3.976 1.514 0 1.474-1.09 2.932-2.165 2.9-.192-.006-.673-.187-1.07-.402z" style="fill:#000;stroke-width:.264583" transform="translate(-63.745 -75.213)"/></svg>