<svg width="925" height="725" viewBox="0 0 925 725" fill="none" xmlns="http://www.w3.org/2000/svg">
<path d="M150.999 533.425C151.335 532.433 151.505 531.605 151.508 530.943C151.844 529.95 152.179 529.123 152.513 528.462L97.8438 528.208C98.511 527.217 99.1776 526.391 99.8433 525.732C100.511 524.741 101.177 523.916 101.843 523.256L159.494 523.525C162.154 521.549 164.975 520.568 167.957 520.582L267.356 521.045C271.001 521.062 273.812 522.069 275.791 524.067L218.14 523.798C218.799 524.464 219.458 525.295 220.116 526.292C221.107 526.96 221.766 527.791 222.092 528.786L276.265 529.039C276.918 531.03 277.242 532.688 277.236 534.013L305.067 534.143C305.399 534.145 305.564 534.311 305.562 534.642L305.541 539.115L238.447 538.803L238.401 548.743L266.232 548.872L266.198 556.327L263.216 556.313L263.169 566.253L245.277 566.17L245.231 576.11L285.488 576.297L285.476 578.782L288.458 578.796L288.412 588.736L290.4 588.745L290.353 598.685L286.875 598.669L286.828 608.609L284.343 608.597L284.285 621.022L292.734 621.062L292.688 631.002L283.245 630.958L283.199 640.897L285.187 640.907L285.175 643.392L320.462 643.556L320.415 653.496L338.804 653.582L338.781 658.552L262.244 658.195L262.221 663.165L287.567 663.283L287.521 673.223L266.647 673.126L266.601 683.066L284.493 683.149L284.47 688.119L287.949 688.135L287.914 695.59L354.511 695.9L354.488 700.87L400.709 701.086L400.662 711.025L274.426 710.437L274.472 700.497L228.251 700.282L228.275 695.312L161.677 695.002L161.712 687.547L158.233 687.531L158.256 682.561L140.364 682.477L140.411 672.537L161.285 672.635L161.331 662.695L135.984 662.577L136.007 657.607L212.544 657.963L212.568 652.993L194.179 652.908L194.225 642.968L158.939 642.804L158.95 640.319L156.962 640.309L157.008 630.369L166.451 630.413L166.498 620.474L158.049 620.434L158.107 608.009L160.592 608.021L160.638 598.081L164.117 598.097L164.163 588.157L162.175 588.148L162.222 578.208L159.24 578.194L159.251 575.709L118.995 575.522L119.041 565.582L136.933 565.665L136.979 555.725L139.961 555.739L139.996 548.284L112.164 548.155L112.21 538.215L179.305 538.527L179.328 533.557L150.999 533.425Z" fill="black"/>
<path d="M220.667 304.779C218.021 303.773 214.875 303.261 211.231 303.244H306.007L302.56 329.017L302.525 336.472L308.586 379.045L267.042 378.552L265.562 376.06L268.544 376.074L262.626 366.106L274.057 366.16L272.578 363.668L249.219 363.559L246.26 358.575L260.673 358.642L254.259 348.672L235.87 348.586L231.432 341.111L243.359 341.166L240.401 336.182L196.168 335.976L191.73 328.501L182.287 328.457L179.328 323.473L212.627 323.628L207.202 314.656C207.203 314.325 207.038 314.159 206.707 314.157L206.709 313.66L240.008 313.815C238.692 311.821 237.374 310.158 236.055 308.827L227.109 308.785C225.46 307.121 223.313 305.785 220.667 304.779Z" fill="black"/>
<path d="M354.293 437.184L366.718 437.241L372.023 472.057L370.543 469.565L357.622 469.504L352.686 462.026L347.219 462.001L342.781 454.525L352.224 454.569L346.307 444.601L359.228 444.662L354.293 437.184Z" fill="black"/>
<path d="M377.134 486.182L386.08 486.223L386.034 496.163L383.052 496.149L377.134 486.182Z" fill="black"/>
<path d="M555.833 634.129L549.869 634.102L551.383 629.139L573.748 629.243L575.216 634.22L571.24 634.201L573.69 641.668L553.313 641.573L555.833 634.129Z" fill="black"/>
<path d="M563.743 643.112L566.189 651.573L561.219 651.55L563.743 643.112Z" fill="black"/>
<path d="M535.086 713.554L536.091 711.073L551.995 711.147L555.024 701.221L535.641 701.131L537.155 696.168L544.61 696.203L547.638 686.277L543.165 686.256L545.685 678.813L551.152 678.838L554.18 668.912L552.689 668.905L553.198 666.423L542.264 666.372L543.778 661.409L554.712 661.46L556.735 654.014L572.638 654.088L575.089 661.555L575.586 661.557L577.053 666.534L560.653 666.457L561.635 668.947L577.539 669.021L580.475 678.975L585.941 679L587.895 686.464L586.404 686.458L589.339 696.411L597.788 696.451L599.256 701.428L584.843 701.36L587.779 711.314L597.719 711.36L598.204 713.848L595.719 713.836L596.209 715.329L540.049 715.068L540.553 713.579L535.086 713.554Z" fill="black"/>
<path d="M478.768 605.415L484.732 605.443L483.218 610.406L460.853 610.302L459.386 605.325L463.362 605.344L460.911 597.877L481.288 597.972L478.768 605.415Z" fill="black"/>
<path d="M470.858 596.432L468.412 587.972L473.382 587.995L470.858 596.432Z" fill="black"/>
<path d="M499.516 525.991L498.51 528.472L482.606 528.397L479.578 538.323L498.961 538.414L497.447 543.377L489.992 543.342L486.963 553.268L491.436 553.289L488.917 560.732L483.45 560.707L480.421 570.633L481.912 570.64L481.404 573.122L492.338 573.173L490.824 578.136L479.89 578.085L477.867 585.531L461.963 585.457L459.513 577.99L459.016 577.988L457.548 573.011L473.949 573.088L472.966 570.598L457.063 570.524L454.127 560.57L448.66 560.545L446.707 553.08L448.198 553.087L445.262 543.134L436.813 543.094L435.345 538.117L449.758 538.185L446.823 528.231L436.883 528.184L436.397 525.697L438.882 525.709L438.392 524.215L494.553 524.477L494.049 525.966L499.516 525.991Z" fill="black"/>
<path d="M140.93 119.595L139.924 122.075L124.02 122.001L120.992 131.927L140.375 132.017L138.861 136.98L131.406 136.945L128.377 146.871L132.85 146.892L130.331 154.336L124.864 154.31L121.836 164.236L123.326 164.243L122.818 166.726L133.752 166.777L139.363 179.135L103.377 179.06L100.927 171.594L100.43 171.592L98.9622 166.615L115.363 166.691L114.381 164.201L98.4767 164.127L95.5411 154.174L90.0742 154.148L88.1209 146.684L89.6119 146.691L86.6762 136.737L78.2273 136.698L76.7595 131.721L91.1723 131.788L88.2366 121.834L78.2968 121.788L77.8113 119.301L80.2963 119.312L79.8063 117.819L135.967 118.081L135.463 119.569L140.93 119.595Z" fill="black"/>
<path d="M822.743 164.655L915.184 165.086L915.219 157.631L863.532 157.39L863.578 147.45L873.518 147.496L873.564 137.556L886.486 137.617L886.498 135.132L893.953 135.166L893.962 133.178C893.976 130.196 893.16 127.542 891.514 125.215L881.077 125.166C878.443 121.509 874.807 119.67 870.169 119.648H801.984V223.995L867.186 226.491C872.487 226.515 876.308 224.214 878.649 219.586L843.362 219.422C844.366 217.438 844.873 215.287 844.884 212.968L844.9 209.489L855.337 209.537L855.348 207.052L909.521 207.305L909.567 197.365L895.154 197.298L895.189 189.843L896.183 189.847L896.218 182.392L857.949 182.214L857.984 174.759L822.697 174.595L822.743 164.655Z" fill="black"/>
<path d="M69.5222 139.652L69.5106 142.137H200.614L236.887 64.1821L224.626 0.892724C221.644 0.878831 218.823 1.85971 216.163 3.83535L185.846 3.69408C185.181 4.35365 184.514 5.17888 183.847 6.16979C183.181 6.82936 182.68 7.65537 182.344 8.64782L187.811 8.6733C187.139 10.6582 186.8 12.3133 186.794 13.6386L177.848 13.5969L177.837 16.0819L181.316 16.0981L181.304 18.5831L198.699 18.6641L198.664 26.119L162.88 25.9523L162.834 35.8922L178.738 35.9663L178.703 43.4212L190.134 43.4745L190.099 50.9294L195.069 50.9526L195.058 53.4375L156.789 68.7797L37.5417 69.9218L47.9786 69.9704L47.967 72.4554L40.5121 72.4206L40.4774 79.8755L51.9083 79.9288L51.862 89.8687L70.7477 89.9567L70.7246 94.9266L25.4981 94.7159L25.4518 104.656L0.105045 104.538L0.0703125 111.993L55.2367 112.25L55.1904 122.19L69.1063 122.254L69.0831 127.224L69.5801 127.227L69.5569 132.197L67.569 132.187L67.5342 139.642L69.5222 139.652Z" fill="black"/>
<path d="M507.25 242.535L517.687 242.584H585.146L575.133 180.229C572.151 180.215 569.33 181.196 566.67 183.171L536.354 183.03C535.688 183.69 535.021 184.515 534.354 185.506C533.688 186.165 533.187 186.991 532.851 187.984L538.318 188.009C537.646 189.994 537.307 191.649 537.301 192.975L528.355 192.933L528.344 195.418L531.823 195.434L531.811 197.919L549.206 198L549.171 205.455L513.388 205.288L513.341 215.228L529.245 215.302L529.21 222.757L540.641 222.81L540.607 230.265L545.576 230.289L545.565 232.773L507.296 232.595L507.25 242.535Z" fill="black"/>
<path d="M658.704 319.719C653.831 322.722 651.06 324.426 651.026 324.447C650.541 323.949 649.062 322.3 646.729 319.663L658.704 319.719Z" fill="black"/>
<path d="M673.129 274.559L673.095 282.014L683.034 282.061L683.022 284.545L666.044 301.861L666.022 306.334C666.016 307.659 666.178 308.654 666.506 309.318L649.111 309.237L650.094 311.727L640.233 312.289C632.38 303.344 620.781 290.063 606.998 274.251L673.129 274.559Z" fill="black"/>
<path d="M489.91 17.7334C582.439 40.3066 790.553 91.0624 892.086 115.694L892.366 116.507L895.492 116.521C900.591 117.757 905.401 118.921 909.892 120.009L911.218 124.05L900.781 124.001L904.214 133.957L905.704 133.964L909.137 143.92L923.053 143.984L924.035 146.475L876.821 146.254L880.254 156.21L881.744 156.218L882.229 158.705L899.625 158.786L901.122 162.735C872.086 182.744 835.048 208.155 801.701 229.806C781.626 242.839 758.253 257.659 735.993 271.642L624.436 271.847L604.823 271.755C580.362 243.687 549.487 208.185 520.516 174.846L584.039 174.729L605.907 174.831L605.919 172.346L535.346 172.018L535.38 164.562L525.44 164.516L525.452 162.031L542.431 144.715L542.452 140.242C542.458 138.917 542.297 137.922 541.969 137.258L559.363 137.339L558.381 134.85L598.649 132.552C596.016 128.895 592.38 127.056 587.741 127.034L478.543 126.524C477.962 125.855 477.383 125.19 476.809 124.528L488.848 124.585L488.895 114.646L468.143 114.548C466.667 112.848 465.221 111.184 463.809 109.558L481.96 109.643L481.972 107.158L467.062 107.089L467.096 99.6338L481.509 99.7002L481.532 94.7305L463.144 94.6455L463.166 89.6748L506.405 89.877L506.439 82.4219L518.864 82.4795L518.888 77.5098L450.8 77.1924L450.834 69.7373H430.109C430.306 68.1101 430.796 64.3788 431.648 59.708L455.354 59.8184L455.308 69.7578L581.544 70.3467L581.59 60.4062L535.369 60.1914L535.393 55.2217L468.796 54.9111L468.83 47.4561L465.352 47.4395L465.374 42.4697L447.482 42.3867L447.529 32.4463L468.402 32.5439L468.449 22.6035L443.103 22.4863L443.125 17.5156L489.91 17.7334Z" fill="black"/>
<path d="M242.404 23.6855C243.629 25.1962 282.02 69.5479 326.612 121.034L310.349 120.959L312.799 128.426L333.096 128.52C334.532 130.178 335.973 131.842 337.418 133.51L320.231 133.431L323.664 143.387L340.064 143.463L342.515 150.93L332.078 150.881L335.511 160.837L337.002 160.844L340.435 170.8L354.35 170.864L355.332 173.354L308.118 173.134L311.551 183.09L313.042 183.098L313.527 185.585L330.922 185.666L333.377 192.138C333.372 193.132 333.698 194.294 334.354 195.622L329.385 195.599L332.344 200.582L334.331 200.592C335.977 202.919 338.288 204.752 341.264 206.091C344.238 207.761 347.878 208.607 352.186 208.627H402.498C438.051 249.66 465.416 281.241 465.45 281.28C475.839 293.13 465.296 281.65 497.574 319.428C502.273 324.927 508.083 331.437 514.587 338.571L482.877 338.424L482.831 348.364L523.76 348.554C536.23 362.027 550.297 376.895 563.675 390.985L544.758 390.897L544.735 395.868L563.124 395.953L563.077 405.894L577.9 405.962C582.451 410.754 586.802 415.341 590.846 419.619L590.805 428.388L599.138 428.427C599.176 428.468 599.215 428.509 599.253 428.55L599.196 440.853L596.711 440.841L596.665 450.78L593.186 450.765L593.14 460.704L595.128 460.714L595.081 470.653L598.063 470.667L598.052 473.152L637.693 473.337C637.897 473.581 638.101 473.826 638.305 474.071L638.262 483.279L620.37 483.196L620.324 493.136L617.342 493.122L617.307 500.577L645.139 500.707L645.093 510.646L577.998 510.334L577.978 514.808C577.976 515.139 578.141 515.305 578.472 515.307L606.304 515.437C606.298 516.762 606.621 518.42 607.274 520.411L661.447 520.663C661.774 521.659 662.433 522.49 663.424 523.157C664.082 524.154 664.74 524.986 665.399 525.651L607.748 525.383C609.727 527.38 612.539 528.387 616.184 528.404H683.242C690.375 537.058 696.756 544.809 701.771 550.906L686.19 550.834L686.179 553.319L703.822 553.401C709.594 560.421 713.096 564.685 713.129 564.726C713.836 565.158 715.953 567.406 719 570.866L710.947 570.83L710.901 580.77L687.543 580.661L687.508 588.115L714.843 588.243L714.808 595.698L709.838 595.675L709.826 598.16L703.862 598.132L703.816 608.072L714.75 608.123L714.704 618.062L719.177 618.084L719.142 625.538L698.765 625.443L698.742 630.413L716.137 630.494L716.091 640.435L694.223 640.332C694.216 641.657 693.879 642.981 693.21 644.304C692.541 645.626 691.873 646.783 691.206 647.773L707.109 647.848C705.778 649.167 704.78 649.99 704.116 650.318L688.709 650.247C687.046 651.564 684.724 652.216 681.742 652.202L741.485 652.48L725.342 659.185C701.347 667.491 678.806 679.368 654.624 687.739C646.833 690.436 624.444 699.235 604.232 706.105L566.542 705.931L566.565 700.961L557.343 700.917C548.544 691.376 536.193 677.903 523.203 663.482L550.836 663.612L550.858 658.642L532.47 658.557L532.517 648.616L509.802 648.51C506.079 644.322 502.385 640.141 498.787 636.033L504.742 636.062L504.789 626.122L496.34 626.082L496.397 613.657L498.883 613.669L498.929 603.729L502.408 603.745L502.454 593.806L500.466 593.796L500.513 583.856L497.53 583.843L497.542 581.357L457.285 581.17L457.332 571.23L475.224 571.313L475.27 561.374L478.252 561.388L478.287 553.933L450.455 553.803L450.501 543.863L517.596 544.176L517.616 539.702C517.618 539.371 517.453 539.205 517.122 539.203L489.29 539.073C489.296 537.748 488.973 536.089 488.319 534.099L434.146 533.847C433.82 532.851 433.161 532.02 432.17 531.353C431.512 530.356 430.854 529.524 430.194 528.858L487.846 529.127C485.867 527.13 483.055 526.122 479.41 526.105H411.457C406.122 519.187 400.747 512.3 395.29 505.479C379.133 485.283 364.345 463.991 347.216 444.578C344.983 442.452 324.862 418.239 296.12 383.342L307.725 383.396L307.771 373.456L287.905 373.363C261.591 341.38 229.408 302.119 197.452 263.076L197.462 261.116L195.842 261.107C195.72 260.958 195.598 260.809 195.476 260.66L195.521 251.167L192.538 251.153L192.55 248.668L185.638 248.636C180.482 242.334 175.35 236.063 170.271 229.854L170.277 228.685L173.26 228.698L173.295 221.243L163.192 221.195C160.453 217.845 157.732 214.517 155.034 211.218L212.604 211.486L212.624 207.013C212.625 206.682 212.461 206.515 212.13 206.514L184.298 206.384C184.304 205.059 183.98 203.4 183.327 201.409L146.875 201.239C145.508 199.567 144.149 197.904 142.797 196.25L182.854 196.438C180.875 194.44 178.063 193.433 174.418 193.416H140.48C92.2366 134.388 54.6367 88.2943 54.6094 88.2607L110.117 60.0254C110.117 60.0254 136.587 49.2323 156.282 37.9316C163.844 33.5931 192.245 20.0549 192.312 20.0225L226.108 3.66406C226.156 3.72242 239.45 20.0421 242.404 23.6855Z" fill="black"/>
<path d="M202.728 479.484C202.826 479.586 235.541 513.368 237.866 516.058C241.264 519.988 260.622 539.995 282.85 562.88L277.177 562.854L277.165 565.338L260.268 565.26L260.232 572.715L292.55 572.865C298.218 578.696 303.946 584.589 309.535 590.339L243.254 590.03L243.242 592.516L253.182 592.562L253.147 600.017L319.24 600.324C320.055 601.162 320.862 601.995 321.664 602.82L301.841 602.729L301.795 612.669L331.357 612.807C333.153 614.658 334.891 616.45 336.56 618.173L336.55 620.285L338.612 620.294C339.437 621.146 340.243 621.979 341.028 622.791L338.029 622.777L338.018 625.263L336.526 625.256L336.48 635.195L337.475 635.2L337.439 642.655L335.451 642.646L335.44 645.131L332.955 645.119L332.95 646.113C333.28 646.446 333.444 646.944 333.44 647.606L338.907 647.632C339.886 650.95 341.863 653.444 344.837 655.114L339.867 655.092C341.518 656.425 343.834 657.097 346.815 657.111L374.314 657.239C379.95 662.754 384.106 666.629 384.106 666.629C384.051 666.695 370.202 683.166 361.74 692.503C353.262 701.859 346.294 710.114 336.475 719.934C336.475 719.934 261.604 721.052 213.578 722.854C198.287 723.428 174.517 723.817 149.218 724.083L149.222 723.284L150.713 723.291L150.725 720.806L154.203 720.822L154.215 718.337L149.245 718.313L149.279 710.859L114.49 710.697L114.536 700.757L136.404 700.859L136.416 698.374L65.8428 698.045L65.877 690.59L57.5781 690.551C58.1536 689.722 58.7274 688.896 59.2988 688.073L191.628 688.691L191.663 681.236L136.497 680.979L136.531 673.524L190.207 673.774L190.219 671.289L72.9277 670.743L72.9385 668.33C74.1062 666.628 75.254 664.951 76.3789 663.303L89.8604 663.366L88.8779 660.877L153.487 661.178L152.008 658.687L129.146 658.58C126.512 654.923 122.876 653.083 118.237 653.062L83.4219 652.898C84.054 651.956 84.6776 651.029 85.2871 650.115C87.6856 646.518 91.0547 641.365 95.0459 635.22L197.243 635.033L219.111 635.135L219.123 632.649L148.55 632.321L148.584 624.866L138.645 624.819L138.656 622.335L155.635 605.019L155.656 600.546C155.662 599.221 155.501 598.226 155.173 597.562L172.567 597.643L171.585 595.153L211.854 592.855C209.22 589.199 205.584 587.36 200.945 587.338L126.148 586.989C138.784 567.339 150.518 549.091 155.755 541.157C158.096 537.609 160.61 534.031 163.189 530.503L194.748 530.65L194.794 520.71L170.675 520.598C178.763 510.192 186.527 501.006 190.856 495.439C193.555 491.969 202.728 479.484 202.728 479.484Z" fill="black"/>
</svg>
